<svg xmlns="http://www.w3.org/2000/svg" id="Layer_1" x="0" y="0" version="1.1" viewBox="0 0 253.8 239" xml:space="preserve"><style>.st1{fill:#fff}</style><radialGradient id="SVGID_1_" cx="142.094" cy="127.895" r="111.078" gradientUnits="userSpaceOnUse"><stop offset="0"/><stop offset=".115" stop-color="#262626"/><stop offset=".363" stop-color="#727272"/><stop offset=".584" stop-color="#afafaf"/><stop offset=".77" stop-color="#dadada"/><stop offset=".915" stop-color="#f5f5f5"/><stop offset="1" stop-color="#fff"/></radialGradient><circle cx="142.1" cy="127.9" r="111.1" fill="url(#SVGID_1_)"/><circle cx="111.1" cy="110.9" r="111.1" class="st1" transform="rotate(-45.001 111.077 110.918)"/><circle cx="111.1" cy="110.9" r="77" fill="#2f7aff" transform="rotate(-81.53 111.079 110.915)"/><path d="M110 123c-7.2 0-13.1-5.6-13.1-12.4 0-2.1.5-4.1 1.5-5.8l-3.2-3c-1.7 2.6-2.7 5.6-2.7 8.8 0 9.2 7.8 16.6 17.5 16.6v6.2l8.8-8.3-8.8-8.3m0-22.8v-6.2l-8.8 8.3 8.8 8.3v-6.2c7.2 0 13.1 5.6 13.1 12.4 0 2.1-.5 4.1-1.5 5.8l3.2 3c1.7-2.6 2.7-5.6 2.7-8.8 0-9.2-7.9-16.6-17.5-16.6z" class="st1"/></svg>