<svg xmlns="http://www.w3.org/2000/svg" id="Layer_1" x="0" y="0" version="1.1" viewBox="0 0 262.6 239" xml:space="preserve"><style>.st1{fill:#fff}</style><radialGradient id="SVGID_1_" cx="150.68" cy="127.895" r="111.078" gradientUnits="userSpaceOnUse"><stop offset="0"/><stop offset=".115" stop-color="#262626"/><stop offset=".363" stop-color="#727272"/><stop offset=".584" stop-color="#afafaf"/><stop offset=".77" stop-color="#dadada"/><stop offset=".915" stop-color="#f5f5f5"/><stop offset="1" stop-color="#fff"/></radialGradient><circle cx="150.7" cy="127.9" r="111.1" fill="url(#SVGID_1_)"/><circle cx="111.1" cy="110.9" r="111.1" class="st1"/><circle cx="111.1" cy="110.9" r="77" fill="#2f7aff" transform="rotate(-80.723 111.083 110.92)"/><path d="M105.4 87.8c9.6 0 17.5 7.8 17.5 17.5 0 4.3-1.6 8.3-4.2 11.4l.7.7h2.1l13.4 13.4-4 4-13.4-13.4v-2.1l-.7-.7c-3.1 2.6-7 4.2-11.4 4.2-9.6 0-17.5-7.8-17.5-17.5s7.9-17.5 17.5-17.5m0 5.4c-6.7 0-12.1 5.4-12.1 12.1s5.4 12.1 12.1 12.1 12.1-5.4 12.1-12.1-5.4-12.1-12.1-12.1z" class="st1"/></svg>