<svg xmlns="http://www.w3.org/2000/svg" id="Layer_1" x="0" y="0" version="1.1" viewBox="0 0 248.9 239" xml:space="preserve"><style>.st1{fill:#fff}</style><radialGradient id="SVGID_1_" cx="137.113" cy="127.895" r="111.078" gradientUnits="userSpaceOnUse"><stop offset="0"/><stop offset=".115" stop-color="#262626"/><stop offset=".363" stop-color="#727272"/><stop offset=".584" stop-color="#afafaf"/><stop offset=".77" stop-color="#dadada"/><stop offset=".915" stop-color="#f5f5f5"/><stop offset="1" stop-color="#fff"/></radialGradient><circle cx="137.1" cy="127.9" r="111.1" fill="url(#SVGID_1_)"/><circle cx="111.1" cy="110.9" r="111.1" class="st1"/><path fill="#2f7aff" d="M111.1 187.9c-42.4 0-77-34.5-77-77s34.5-77 77-77c42.4 0 77 34.5 77 77s-34.6 77-77 77z"/><path d="M110.9 87.4c13 0 23.5 10.5 23.5 23.5s-10.5 23.5-23.5 23.5-23.5-10.5-23.5-23.5 10.5-23.5 23.5-23.5m11.7 11.7h-5.9l-2.4-2.3h-7l-2.3 2.3h-5.9v4.7h23.5v-4.7M103.8 125h14.1c1.3 0 2.3-1.1 2.3-2.3v-16.5h-18.8v16.5c.1 1.2 1.1 2.3 2.4 2.3z" class="st1"/></svg>