<svg xmlns="http://www.w3.org/2000/svg" id="Layer_1" x="0" y="0" version="1.1" viewBox="0 0 248.9 239" xml:space="preserve"><style>.st1{fill:#fff}</style><radialGradient id="SVGID_1_" cx="137.112" cy="127.895" r="111.078" gradientUnits="userSpaceOnUse"><stop offset="0"/><stop offset=".115" stop-color="#262626"/><stop offset=".363" stop-color="#727272"/><stop offset=".584" stop-color="#afafaf"/><stop offset=".77" stop-color="#dadada"/><stop offset=".915" stop-color="#f5f5f5"/><stop offset="1" stop-color="#fff"/></radialGradient><circle cx="137.1" cy="127.9" r="111.1" fill="url(#SVGID_1_)"/><circle cx="111.1" cy="110.9" r="111.1" class="st1"/><path fill="#2f7aff" d="M111.1 187.9c-42.4 0-77-34.5-77-77s34.5-77 77-77c42.4 0 77 34.5 77 77s-34.6 77-77 77z"/><path d="M94.5 91.4c-2.5 0-4.6 2-4.6 4.6v31.9c0 2.5 2 4.6 4.6 4.6h13.7v-41m4.6-.1v18.2H131V95.9c0-2.5-2-4.6-4.6-4.6m-13.6 22.8v18.2h13.7c2.5 0 4.6-2 4.6-4.6V114" class="st1"/></svg>