<?xml version="1.0" encoding="utf-8"?>
<!-- Generator: Adobe Illustrator 24.1.0, SVG Export Plug-In . SVG Version: 6.00 Build 0)  -->
<svg version="1.1" id="Layer_1" xmlns="http://www.w3.org/2000/svg" xmlns:xlink="http://www.w3.org/1999/xlink" x="0px" y="0px"
	 viewBox="0 0 1061.5 768" style="enable-background:new 0 0 1061.5 768;" xml:space="preserve">
<style type="text/css">
	.st0{clip-path:url(#SVGID_2_);}
	.st1{fill:#4855A9;}
	.st2{fill:#FFFFFF;}
	.st3{fill:#1E2975;}
	.st4{fill:#3D7CF7;}
	.st5{fill:#FFA8B9;}
	.st6{fill:#A4A3FC;}
	.st7{fill:#45314A;}
	.st8{fill:#FA9778;}
	.st9{fill:#FA7C55;}
	.st10{fill:#FFD592;}
	.st11{fill:#D2D1FC;}
	.st12{clip-path:url(#SVGID_4_);}
	.st13{fill:#F7BB8B;}
	.st14{fill:#C25B3E;}
	.st15{fill:#EBA771;}
	.st16{fill:#DCF2F2;}
	.st17{fill:#E4F5F5;}
	.st18{fill:#450D20;}
	.st19{fill:#F28E6F;}
	.st20{fill:#ED8D5D;}
	.st21{fill:#994831;}
	.st22{fill:#DB6A3D;}
	.st23{fill:#FFC9D3;}
	.st24{fill:#CC6F49;}
	.st25{fill:#DCDCF2;}
	.st26{fill:#C4533A;}
	.st27{opacity:0.15;}
	.st28{clip-path:url(#SVGID_6_);}
</style>
<g>
	<g id="Header">
		<g>
			<defs>
				<rect id="SVGID_1_" x="-39.5" y="0.2" width="1101" height="768"/>
			</defs>
			<clipPath id="SVGID_2_">
				<use xlink:href="#SVGID_1_"  style="overflow:visible;"/>
			</clipPath>
			<g class="st0">
				<path class="st1" d="M117.2,450.6c-5.9-8.9-13-16.8-19-25.6c-11.4-17-17.9-36.6-25.9-55.4c-7.2-16.8-19.4-35.4-37.6-35.1
					c-16,0.3-27.8,15.8-32,31.1c-6.1,22.7-1.8,46.9,11.9,66c11.6,16,28.9,26.8,44.7,38.7s31.4,26.2,36.9,45.2
					c2.9,9.9,2.9,20.6,7.8,29.7c4.1,7.5,16,15.5,23.6,8.7c5.8-5.1,6.7-24.7,7.3-31.8C137.2,497.2,131.1,471.5,117.2,450.6z"/>
				<path class="st1" d="M121.3,507.9c6.5-1.3,8.3-9.7,8.3-16.3c-0.1-12.6-1.8-25.1-5.1-37.2c-5.1-18.8-14.1-37.1-14-56.6
					c0-8.7,1.8-17.2,3.3-25.8c3.3-18.4,5.4-37.3,2.2-55.7s-12.4-36.4-27.8-46.9c-6.7-4.5-14.6-7.6-22.6-7.1s-16.1,5.1-19.2,12.6
					c-5.1,12,3.5,25,11.3,35.5c5.6,7.5,11,15,16.3,22.7c4,5.9,8,11.9,10.3,18.7c5.6,16.7,0.2,34.8-1.2,52.3
					c-2.4,31.9,8.6,63.4,30.2,86.9L121.3,507.9z"/>
				<path class="st1" d="M31.8,272.9c0.6,6.8,1.1,13.6,1.7,20.4c0.2,0.8,0,1.6-0.3,2.4c-0.5,0.6-1.2,1-1.9,1
					c-3.7,0.8-7.6-1.4-9.7-4.5s-2.9-7-3.1-10.8c-0.3-2.8,0-5.7,1-8.4c1-2.7,3.4-4.7,6.2-5.2c2.8-0.4,5.9,1.6,6.2,4.4"/>
				<path class="st2" d="M83.3,396.6c7.8,8.3,13.1,18.7,15.3,29.9c-1.8-5.3-4-10.5-6.5-15.5C89.5,406,86.6,401.2,83.3,396.6z"/>
				<path class="st2" d="M33.8,340.8c-0.6,4.7-0.8,9.5-0.6,14.2c0.3,4.7,1,9.4,2,14.1c1.1,4.6,2.4,9.2,4,13.6
					c1.7,4.4,3.6,8.8,5.7,13c8.5,17,20.4,32,32.2,46.8c5.9,7.5,11.8,14.9,17.3,22.7c2.7,3.9,5.4,7.9,7.9,11.9s4.8,8.2,6.9,12.5
					s4,8.7,5.6,13.2c1.6,4.5,2.9,9.1,3.9,13.7c0.9,4.7,1.5,9.4,1.7,14.2c0.1,4.8-0.2,9.5-0.9,14.2c0.6-4.7,0.8-9.5,0.6-14.2
					c-0.3-4.7-1-9.4-2-14.1c-1-4.6-2.4-9.2-4-13.6c-1.7-4.4-3.6-8.8-5.7-13c-8.5-17-20.4-32-32.2-46.8c-5.9-7.5-11.8-15-17.3-22.7
					c-2.7-3.9-5.4-7.9-7.9-11.9s-4.8-8.2-6.9-12.5c-2.1-4.3-3.9-8.7-5.5-13.2c-1.6-4.5-2.9-9.1-3.9-13.8c-0.9-4.7-1.5-9.4-1.7-14.2
					C32.8,350.3,33.1,345.5,33.8,340.8z"/>
				<path class="st2" d="M3.9,372.8c0.8,1.1,1.6,2.2,2.4,3.3l2.5,3.2l2.6,3.1l2.7,3c7.4,7.9,16,14.7,25.4,20.1l3.5,2l3.6,1.9
					l3.7,1.7c1.2,0.5,2.5,1.1,3.7,1.6l-3.9-1.3l-3.8-1.5l-3.7-1.7l-3.6-1.9c-9.6-5.2-18.3-12.1-25.6-20.3l-2.6-3.1l-2.5-3.2L6,376.3
					C5.3,375.1,4.6,374,3.9,372.8z"/>
				<path class="st2" d="M25.8,442.2c1.3,0.6,2.6,1.2,3.9,1.8l3.9,1.7l4,1.6l4,1.6c5.3,2,10.7,3.9,16.2,5.5s11,3.1,16.6,4.3l4.2,0.9
					l4.2,0.8l4.2,0.8c1.4,0.2,2.8,0.4,4.2,0.7c-1.4-0.1-2.9-0.2-4.3-0.4l-4.3-0.5l-4.2-0.6l-4.2-0.7c-5.6-1.1-11.2-2.5-16.7-4.1
					s-10.9-3.5-16.2-5.8l-3.9-1.7l-3.9-1.8l-3.9-2C28.3,443.6,27,442.9,25.8,442.2z"/>
				<path class="st2" d="M96.7,509.1c8.4,1.7,16.1,5.7,22.2,11.7c-3.6-2.3-7.1-4.5-10.8-6.4S100.6,510.8,96.7,509.1z"/>
				<path class="st2" d="M61.1,353.3c1.4,7.5,2.9,14.9,4.6,22.2s3.5,14.7,5.6,22c1,3.6,2,7.3,3.1,10.9c1.1,3.6,2.3,7.2,3.1,10.9
					c0.9,3.7,1.4,7.5,1.3,11.4c-0.1,3.8-1,7.6-2.7,11c1.5-3.5,2.2-7.2,2.1-11c-0.1-3.8-0.6-7.5-1.6-11.1c-1-3.6-2.1-7.2-3.3-10.9
					s-2.2-7.3-3.2-10.9c-2-7.3-3.8-14.7-5.3-22.1c-0.8-3.7-1.5-7.4-2.1-11.2S61.5,357.1,61.1,353.3z"/>
				<path class="st2" d="M107.2,445.8c0.4,1,0.8,2,1.1,3.1l1,3.1l0.9,3.2l0.8,3.2c1,4.3,1.7,8.6,2.2,13c0.4,4.4,0.6,8.8,0.5,13.2
					l-0.2,3.3l-0.3,3.3l-0.4,3.3c-0.2,1.1-0.3,2.2-0.5,3.2c0.1-1.1,0.1-2.2,0.2-3.3l0.1-3.3l0.1-3.3v-3.3c0-4.4-0.3-8.7-0.7-13
					s-1.1-8.6-1.9-12.9l-0.6-3.2l-0.7-3.2L108,449C107.8,447.9,107.5,446.9,107.2,445.8z"/>
				<path class="st2" d="M53.3,272.9c8,2.1,15.5,5.7,22.1,10.7c6.6,5,12.2,11.2,16.4,18.4c2.1,3.6,3.9,7.3,5.2,11.2
					c1.3,3.9,2.3,7.9,3,12c0.7,4.1,1.1,8.2,1.3,12.3c0.2,4.1,0.2,8.2,0.1,12.4c-0.4,16.5-2.7,32.9-0.8,49.2c0.2,2,0.5,4.1,0.8,6.1
					l0.6,3l0.3,1.5l0.4,1.5c0.9,4,2.2,7.9,3.8,11.7c1.6,3.8,3.6,7.4,6,10.7c2.4,3.3,5.3,6.3,8.5,8.9c-3.3-2.5-6.2-5.5-8.7-8.7
					c-2.5-3.3-4.6-6.9-6.3-10.6c-1.7-3.8-3-7.7-4-11.7l-0.4-1.5l-0.3-1.5l-0.6-3c-0.3-2-0.7-4.1-0.9-6.1c-0.9-8.2-1.1-16.5-0.6-24.7
					c0.4-8.2,1-16.4,1.1-24.6c0.1-4.1,0.1-8.2-0.1-12.3c-0.2-4.1-0.6-8.2-1.2-12.2c-0.7-4-1.6-8-2.9-11.9c-1.3-3.9-3-7.6-5-11.1
					C82.7,288,69.2,277.5,53.3,272.9z"/>
				<path class="st2" d="M52.2,293.2c1.9,1.4,4,2.7,6.1,3.8c2.1,1.1,4.3,2.1,6.5,3.1c4.5,1.8,8.8,4,13,6.4c4.1,2.7,7.8,5.8,11.2,9.2
					l5.1,5.1c1.7,1.7,3.4,3.5,5,5.2c-1.8-1.6-3.6-3.2-5.4-4.8l-5.3-4.9c-3.4-3.3-7.2-6.3-11.2-8.9c-4.1-2.4-8.4-4.6-12.8-6.6
					c-2.2-1.1-4.3-2.2-6.4-3.4C56,296.2,54.1,294.8,52.2,293.2z"/>
				<path class="st2" d="M87,275.3c1.6,2.1,3.1,4.3,4.6,6.5s2.9,4.5,4.2,6.8c2.7,4.6,4.9,9.5,6.6,14.5c1.6,5.1,2.4,10.5,2.3,15.8
					c-0.1,2.7-0.4,5.4-1.1,8c-0.7,2.6-1.6,5.1-2.9,7.4c1.1-2.4,1.9-4.9,2.4-7.5c0.5-2.6,0.8-5.2,0.8-7.8c0-5.3-0.9-10.5-2.5-15.5
					c-1.6-5-3.7-9.9-6.3-14.5c-1.2-2.3-2.6-4.6-3.9-6.9S88.3,277.6,87,275.3z"/>
				<path class="st2" d="M79,332.8c1.1,1.5,2.2,3,3.2,4.5s2,3.1,2.9,4.7c1.8,3.2,3.5,6.5,4.9,9.9c0.7,1.7,1.4,3.4,2,5.2
					s1.2,3.5,1.9,5.2c0.6,1.7,1.4,3.3,2.4,4.9c0.9,1.6,2.2,2.9,3.6,4.1c-1.6-1-3-2.2-4.1-3.8c-1.1-1.5-2-3.2-2.7-4.9
					c-1.5-3.4-2.6-6.9-4.1-10.2s-3-6.7-4.6-10c-0.8-1.6-1.7-3.3-2.6-4.9C80.9,336,79.9,334.5,79,332.8z"/>
				<path class="st2" d="M112.2,354.5c0.1,2.4,0.1,4.8,0,7.2s-0.4,4.8-0.7,7.2c-0.6,4.8-1.6,9.5-3,14.2c-1.4,4.6-3.3,9.1-4.7,13.7
					c-0.7,2.3-1.2,4.6-1.5,7c-0.3,2.4-0.2,4.8,0.2,7.1c-0.7-2.3-0.9-4.8-0.8-7.2c0.2-2.4,0.6-4.8,1.2-7.2c1.2-4.7,3.1-9.1,4.4-13.8
					c1.4-4.6,2.5-9.3,3.2-14c0.4-2.4,0.7-4.7,1-7.1S112.1,356.9,112.2,354.5z"/>
				<path class="st3" d="M94.3,202.3v334.1c0,12.6,20,23.5,46.5,24.5c1.2,0,2.4,0.1,3.7,0.1c39.5,0.7,190.4-5,229.1-6.6
					c10-0.4,19.5-2.2,26.9-5.5c9.4-4.1,19.4-11.2,21-23.3V214.3c0,0,3.2-19.2-45.4-23.1l-221.7-11.5c-15.8-0.8-31.9,1.2-44.1,6
					c-0.7,0.3-1.5,0.6-2.2,0.9C99.1,190.6,94.3,196.4,94.3,202.3z"/>
				<path class="st1" d="M109.5,203.1v333.4c0,12.6,20,23.5,46.5,24.5c1.2,0,2.4,0.1,3.7,0.1c39.5,0.7,190.4-5,229.1-6.5
					c10-0.4,19.5-2.2,26.9-5.5c9.4-4.1,19.4-11.2,21-23.3V215.1c0,0,3.2-19.2-45.4-23l-221.7-11.5c-15.8-0.8-31.9,1.2-44.1,6
					c-0.7,0.3-1.5,0.6-2.2,0.9C114.2,191.5,109.5,197.2,109.5,203.1z"/>
				<polygon class="st4" points="425.4,214.9 425.4,518.7 186.1,524 127.3,525.3 127.2,505.6 126.8,428.5 126.5,364.6 126.1,287 
					125.9,248.4 125.7,202 219.3,206 297.4,209.4 				"/>
				<polygon class="st1" points="427.1,523.4 672.7,565.7 356.1,593.6 131.6,531 				"/>
				<polygon class="st1" points="427.3,554.9 673.1,590 356.3,613.2 131.6,561.2 				"/>
				<polygon class="st3" points="353,591 353,619 672.7,593.6 672.7,565.5 				"/>
				<path class="st3" d="M354.1,591.2l-244.6-60.6c-17.1,1.4-15.2-19.9-15.2,6.9c3.8,20.6,23,22.2,33,24.7l226.8,57.1"/>
				<path class="st4" d="M1043.2-50.1c-63.9,0.8-123.2,32.9-172,72.5s-90,87.3-137.8,128s-105.2,75.1-168.9,80.2
					c-51.3,4.1-101.9-11.2-151.8-23.5c-47.4-11.7-104.8-12.6-151.8,0.4l-5.8,172l5.8,142.4c67.1,46.7,122.4,122.5,192,165.8
					c74.8,46.6,169.6,43.4,257.2,33.7s178.6-24.2,262.2,4.1c40.2,13.6,76.4,36.5,114.6,54.9s80.4,32.7,122.4,27.1l1.6-784.2
					C1167.1-20.4,1106.4-50.9,1043.2-50.1z"/>
				<path class="st4" d="M707.9,145.6c15.7-14.2,28.5-32.6,32.3-53.4c1.2-6.7,1.4-14.1-2.2-19.8c-5.4-8.6-17.2-10.6-27.2-9.1
					c-20.6,3.1-38.4,17.5-49.3,35.3s-15.6,38.7-17.9,59.5C638.8,202.5,695.2,157,707.9,145.6z"/>
				<path class="st4" d="M606.6,163.7c0.9-2.8,2.3-5.5,4-7.9c1.8-2.3,4.6-4.1,7.5-4.1c2.7,0,5.2,1.6,7.2,3.5
					c6.8,6.4,9,16.9,5.9,25.7s-11.2,15.4-20.2,17.4c-4.3,0.9-8.8,0.9-13.1,0c-4.9-1.1-3-4-1.6-7.8L606.6,163.7z"/>
			</g>
		</g>
		<path class="st2" d="M707,227.2h130.4c-0.5-1.3-1.5-2.3-2.7-2.9c-2.4-1-5.1-0.4-7.7-0.1s-5.5,0.3-7.4-1.4s-2.2-5.3-4.4-7
			c-4.2-3.4-10.7,2.2-15.7,0.2s-5.4-10.1-10.6-11.4c-4.8-1.2-9.1,4.7-13.9,3.7c-2.7-0.5-4.5-3-5.4-5.6s-0.9-5.4-1.6-8
			c-2.5-9.8-12.6-15.7-22.4-13.2c-6.7,1.7-11.8,7-13.3,13.8c-0.7,3.1-0.6,6.4-1.2,9.6s-2.4,6.4-5.4,7.5c-4.1,1.6-8.5-1.3-12.9-1.1
			c-5,0.2-9,4.5-8.7,9.5C704,223.3,705.1,225.6,707,227.2L707,227.2z"/>
		<path class="st2" d="M631,350.2h118.1c-0.4-1.2-1.3-2.1-2.5-2.6c-2.2-0.9-4.7-0.4-7-0.1s-5,0.3-6.7-1.3s-2-4.8-4-6.4
			c-3.8-3.1-9.7,2-14.2,0.2s-4.9-9.2-9.6-10.4c-4.3-1.1-8.2,4.2-12.6,3.4c-2.4-0.5-4.1-2.8-4.9-5.1s-0.8-4.9-1.5-7.3
			c-2.3-8.9-11.4-14.3-20.3-12c-6.1,1.6-10.7,6.4-12.1,12.5c-0.6,2.8-0.5,5.8-1.1,8.7s-2.1,5.8-4.9,6.8c-3.7,1.4-7.7-1.2-11.7-1
			c-4.6,0.2-8.1,4-7.9,8.6C628.3,346.6,629.3,348.7,631,350.2L631,350.2z"/>
		<path class="st2" d="M1013.5,185.2H895.3c-5,0-7.2-6.4-3.2-9.3c2-1.5,4.5-2.2,6.9-1.9c2.7,0.4,5.4,1.8,8,0.9
			c4.4-1.6,4.2-8.5,8.2-11s9.5,0.7,12.6,3.5c1.7,1.5,3.7,2.6,5.8,3.1c11.4,2.4,11.9-15.5,21.4-17.1c6.8-1.2,11.7,7,18.5,8.2
			c6.4,1.1,12-4.3,15.6-9.7c4.2-6.6,7.8-14.4,16.3-15.9c4.7-0.7,9.6,0.7,13.2,3.8c7.5,6.3,8.9,16.6,6.8,25.6
			c-1.4,6.2-4.4,11.9-7.6,17.3C1017.1,184.3,1015.3,185.2,1013.5,185.2z"/>
		<path class="st2" d="M352.3,248.5h-55.2c-1.3,0-2.4-1.1-2.4-2.4c0-0.8,0.3-1.5,1-2c0.9-0.7,2.1-1,3.2-0.9c1.2,0.2,2.5,0.9,3.7,0.4
			c2.1-0.8,2-4,3.8-5.2s4.4,0.3,5.9,1.6c0.8,0.7,1.7,1.2,2.7,1.4c5.3,1.1,5.6-7.2,10-8c3.2-0.5,5.5,3.3,8.7,3.8c3,0.5,5.6-2,7.3-4.6
			c2-3.1,3.7-6.7,7.6-7.4c2.2-0.3,4.5,0.3,6.2,1.8c3.5,2.9,4.2,7.8,3.2,12c-0.8,2.9-2,5.6-3.5,8.1
			C354,248.1,353.2,248.5,352.3,248.5z"/>
		<path class="st1" d="M671.6,485c-4.3-6.5-9.6-12.4-14-18.9c-8.4-12.5-13.2-27-19.1-40.8c-5.3-12.4-14.3-26.1-27.7-25.9
			c-11.8,0.2-20.5,11.6-23.6,23c-4.5,16.7-1.3,34.5,8.8,48.6c8.6,11.8,21.3,19.8,33,28.5s23.1,19.3,27.2,33.3
			c2.1,7.3,2.2,15.2,5.7,21.9c3,5.5,11.8,11.4,17.4,6.5c4.3-3.8,4.9-18.2,5.4-23.5C686.4,519.2,681.8,500.6,671.6,485z"/>
		<path class="st1" d="M642.3,416.5L642.3,416.5c1.1,2,3.6,2.6,5.5,1.5c1-0.6,1.7-1.6,1.9-2.8c0.2-1.4,0.1-2.9-0.2-4.3
			c-0.9-3.5-6.3-11-10.8-8.4S640.7,413.6,642.3,416.5z"/>
		<path class="st1" d="M673.1,523.4c2.6-12.2,9.3-23.7,19.6-30.7c5.8-3.9,12.5-6.4,17.4-11.4c9.5-9.6,8.9-24.9,12.2-37.9
			c0.7-2.8,1.8-5.9,4.4-7.3c2-1.1,4.5-1,6.7-0.7c18.8,3,31.5,20.7,28.5,39.5c-1.1,7-4.4,13.5-9.3,18.5c-9.2,9.5-23.2,13-33.4,21.4
			c-7.1,5.9-12.2,13.9-15.8,22.4c-2.8,6.6-5,13.7-9.7,19.2c-5.5,6.5-16.2,10.7-19.2,0.9C671.2,546.4,670.8,534.7,673.1,523.4z"/>
		<circle class="st1" cx="652.1" cy="422.5" r="3.1"/>
		<path class="st2" d="M673.1,561.2c-2.9-2.4-5.4-5.3-7.3-8.5c-1.9-3.2-3.4-6.7-4.5-10.3c-2.2-7.2-2.9-14.8-3.3-22.3
			s-0.6-15-1.8-22.4c-1.1-7.4-3.8-14.4-8.1-20.5c-4.3-6.1-9.7-11.3-15.2-16.4c-5.6-5-10.8-10.5-15.6-16.3
			c-4.7-5.9-8.7-12.4-10.8-19.7s-2.4-15.1,0-22.2c-2.3,7.2-1.7,15,0.5,22.1c2.4,7.1,6.1,13.6,11,19.3c4.9,5.7,10.1,11,15.6,16
			c5.5,5.1,11,10.3,15.4,16.5c2.2,3.1,4,6.5,5.3,10c1.3,3.6,2.3,7.2,2.9,11c1.2,7.5,1.4,15,1.7,22.5s0.9,15,2.9,22.2
			c1,3.6,2.4,7.1,4.2,10.3C667.9,555.8,670.3,558.7,673.1,561.2z"/>
		<path class="st2" d="M590.1,420.5c0.4,1,0.7,2.1,1.1,3.1l1.3,3.1l1.5,3l1.7,2.8c4.8,7.4,11.5,13.5,19.4,17.5l3,1.4l3.1,1.2l3.2,1
			c1.1,0.2,2.2,0.5,3.2,0.8c-1.1-0.1-2.2-0.3-3.3-0.5l-3.3-0.7l-3.2-1l-3.1-1.3c-4.1-1.9-7.9-4.4-11.2-7.4c-3.3-3-6.2-6.5-8.5-10.4
			l-1.6-3l-1.4-3.1l-1.1-3.2C590.6,422.6,590.3,421.5,590.1,420.5z"/>
		<path class="st2" d="M596.9,464c1.9,1.9,4,3.5,6.2,5c2.2,1.5,4.6,2.8,7,3.9c4.8,2.2,9.9,4,15,5.5c5.1,1.6,10.3,2.9,15.4,4.6
			c2.5,0.9,5,1.8,7.5,2.9c2.5,1.1,4.8,2.4,7.1,3.8c-2.4-1.2-4.8-2.3-7.3-3.3c-2.5-1-5-1.8-7.6-2.6c-5.1-1.5-10.3-2.9-15.4-4.4
			c-5.2-1.5-10.2-3.4-15-5.8c-2.4-1.2-4.7-2.6-6.9-4.2C600.7,467.9,598.7,466,596.9,464z"/>
		<path class="st2" d="M626.8,414c-0.9,5.1-0.6,10.4,1,15.3c1.6,4.9,3.6,9.7,6.2,14.2c2.5,4.6,5.2,9,7.4,13.8
			c1.1,2.4,2.1,4.8,2.9,7.3c0.8,2.5,1.3,5.1,1.5,7.7c-0.4-2.6-1.1-5.1-2-7.5c-0.9-2.4-2-4.8-3.2-7.1c-2.4-4.6-5.1-9.1-7.6-13.6
			c-2.6-4.6-4.6-9.4-6.1-14.5c-0.7-2.5-1.1-5.2-1.2-7.8C625.7,419.2,626.1,416.5,626.8,414z"/>
		<path class="st2" d="M664,484.2c0.8,1.6,1.3,3.3,1.7,5.1c0.3,1.8,0.5,3.5,0.6,5.3c0,3.6-0.4,7.2-1.2,10.6c-0.8,3.5-1.9,6.9-3,10.2
			c-0.6,1.7-1.1,3.3-1.7,5s-1.1,3.4-1.6,5.1c0.2-1.8,0.7-3.5,1-5.2s0.9-3.4,1.4-5.1c1-3.4,2-6.8,2.8-10.2c0.8-3.4,1.3-6.9,1.5-10.4
			c0.1-1.8,0-3.5-0.2-5.2C664.9,487.6,664.5,485.9,664,484.2z"/>
		<path class="st2" d="M676.4,562c-0.6-1.1-1.3-2.2-1.9-3.3l-1.6-3.5l-1.3-3.6l-1.1-3.7c-2.3-10-1.5-20.5,2.3-30.1l1.6-3.5l1.8-3.4
			l2.1-3.2c0.8-1,1.6-2,2.4-3c-0.7,1.1-1.4,2.1-2.1,3.1l-1.9,3.3l-1.7,3.4l-1.4,3.5c-3.4,9.5-4.2,19.7-2.2,29.6l0.8,3.7l1.1,3.6
			l1.4,3.5C675.3,559.8,675.8,560.9,676.4,562z"/>
		<path class="st2" d="M683.2,562.5c-2.5-5.5-3.4-11.7-2.6-17.7c0.8-6,2.7-11.9,5.7-17.2c3-5.3,6.6-10.2,10.7-14.7
			c4-4.5,8.3-8.8,12.5-13.1c4.3-4.2,8.3-8.7,12.1-13.3c3.8-4.7,6.9-9.8,9.2-15.3c2.3-5.5,3.3-11.5,3.1-17.5
			c-0.2-6-2.3-11.9-5.9-16.7c3.9,4.7,6.1,10.6,6.5,16.7c0.4,6.1-0.6,12.2-2.8,17.9c-2.3,5.6-5.4,10.9-9.2,15.6
			c-3.8,4.7-7.8,9.2-12.1,13.5c-4.3,4.3-8.6,8.5-12.6,13c-4.1,4.4-7.6,9.3-10.7,14.4c-3,5.2-5,10.9-5.9,16.8
			C680.2,550.8,680.9,556.9,683.2,562.5z"/>
		<path class="st2" d="M757.1,460.2c-1.7,1.2-3.3,2.6-4.8,4.1c-1.5,1.5-2.9,3-4.2,4.6c-2.7,3.2-5.2,6.6-7.9,9.8
			c-2.7,3.3-5.9,6.1-9.5,8.4c-1.8,1.1-3.7,2.1-5.8,2.7c-2,0.6-4.1,0.9-6.3,0.9c2.1-0.2,4.1-0.6,6.1-1.4c1.9-0.8,3.8-1.7,5.5-2.9
			c3.4-2.4,6.5-5.3,9.1-8.4c2.7-3.1,5.3-6.5,8.1-9.6c1.4-1.6,2.9-3.1,4.5-4.5C753.5,462.5,755.3,461.3,757.1,460.2z"/>
		<path class="st2" d="M732.3,501.1c-1.2,0.2-2.3,0.4-3.4,0.7c-1.1,0.3-2.2,0.8-3.2,1.2c-2.1,1-4.1,2.2-5.9,3.6
			c-3.6,2.9-7,6.1-10.1,9.5c-3.3,3.3-6.6,6.7-10.6,9.2c-2,1.3-4.1,2.3-6.4,3c-2.3,0.7-4.6,1-7,0.9c2.3-0.1,4.6-0.6,6.8-1.5
			c2.1-0.8,4.2-1.9,6.1-3.3c3.7-2.7,7.2-5.8,10.3-9.3c3.3-3.3,6.5-6.7,10.4-9.4c1.9-1.4,4-2.5,6.2-3.4
			C727.6,501.7,729.9,501.2,732.3,501.1z"/>
		<path class="st2" d="M689.2,499c-1.5,3.5-2.9,7.1-4.2,10.6s-2.5,7.2-3.5,10.9c-0.5,1.8-1,3.6-1.5,5.5c-0.5,1.8-0.9,3.7-1.2,5.5
			c-0.3,1.8-0.3,3.7,0,5.6c0.3,1.9,1.2,3.6,2.4,5h-0.1l0.1-0.7v0.7v0.1l-0.1,0c-1.4-1.3-2.5-3-2.9-4.9c-0.5-1.9-0.6-3.9-0.3-5.8
			c0.2-1.9,0.6-3.8,1.1-5.7c0.5-1.9,0.9-3.7,1.5-5.5c1.1-3.7,2.4-7.3,3.8-10.8c0.7-1.8,1.5-3.5,2.3-5.2S688.2,500.7,689.2,499z"/>
		<path class="st1" d="M954.4,519.9c7.2-13.4,18.9-23.7,30.2-33.9s22.7-21,29.1-34.8c2.2-4.8,3.8-9.9,6.8-14.3s8-7.9,13.2-7.3
			c6.4,0.6,10.7,6.8,13.3,12.7c5,11.5,6.7,25,1.8,36.5c-6.4,15-22.1,23.5-36.6,31.1c-17.9,9.4-36.7,20.5-44.5,39.1
			c-4.6,11-12.2,22.5-18.2,5.1C945.8,543.2,949.1,529.8,954.4,519.9z"/>
		<path class="st1" d="M945.9,509.2c2.6-14.4,8.9-27.9,13.5-41.8s7.6-29.1,3.5-43.1c-2.6-9-8-17-12.5-25.3
			c-2.3-4.3-4.5-9.5-2.3-13.8c1.3-2.3,3.3-4,5.8-4.9c10.3-4.2,22.1,2,29.4,10.3c8,9.1,12.9,20.5,13.9,32.6
			c1.9,23.7-11.1,45.6-20,67.7c-4.6,11.5-8.2,23.3-10.7,35.4c-2.1,10-0.8,24.7-6.5,33.4c-7.4,11.3-11.4-8.3-12.9-14.2
			C944.2,533.6,943.8,521.3,945.9,509.2z"/>
		<path class="st1" d="M1026.3,426.1c0-0.6-0.1-1.3-0.5-1.8c-0.4-0.5-1.1-0.9-1.7-0.9c-1.8-0.1-3.6,0.8-4.6,2.4
			c-0.8,1.3-1.7,3.6-0.6,4.9s2.8,0.6,4.1-0.1C1024.9,429.4,1026.4,428.5,1026.3,426.1z"/>
		<circle class="st1" cx="1021.4" cy="420.2" r="1.9"/>
		<path class="st2" d="M976.5,494.3c-0.8,1-1.7,1.9-2.5,2.9l-2.4,3l-2.4,3l-2.2,3.1c-2.9,4.2-5.6,8.5-7.9,13.1
			c-2.3,4.5-4.4,9.2-6.1,14l-1.2,3.6l-1.1,3.7l-1,3.7c-0.3,1.2-0.6,2.5-0.9,3.7c0.2-1.3,0.4-2.5,0.6-3.8l0.7-3.8l0.9-3.7l1.1-3.7
			c3.1-9.8,7.9-19.1,14.1-27.3l2.4-3l2.5-2.9l2.7-2.8C974.7,496.1,975.6,495.2,976.5,494.3z"/>
		<path class="st2" d="M950.5,537.8c-0.1-6.7,0.1-13.5,0.7-20.2c0.7-6.7,1.7-13.4,3.2-20c1.4-6.6,3.3-13.1,5.5-19.5
			c2.2-6.4,4.9-12.6,7.3-18.9c2.6-6.2,4.6-12.6,6-19.1c1.3-6.6,1.6-13.3,0.7-19.9c-0.4-3.3-1.2-6.6-2.2-9.8c-1-3.2-2.2-6.3-3.7-9.3
			c-3-6.1-6.9-11.5-11.8-16.2c2.5,2.3,4.7,4.8,6.8,7.5c4.1,5.4,7.3,11.4,9.4,17.9c1,3.2,1.8,6.5,2.3,9.9c1,6.7,0.8,13.6-0.6,20.2
			c-1.4,6.6-3.4,13.1-6,19.4c-2.5,6.3-5.2,12.5-7.4,18.8c-2.2,6.3-4.1,12.8-5.7,19.3C952.2,510.9,950.6,524.4,950.5,537.8
			L950.5,537.8z"/>
		<path class="st2" d="M975.5,387.2c0.7,2.1,1.3,4.3,1.9,6.4s1.2,4.3,1.7,6.5c1,4.4,1.7,8.8,1.9,13.3c0.2,4.5-0.2,9-1.2,13.4
			c-0.5,2.2-1.2,4.3-2.1,6.4c-0.9,2.1-2,4-3.3,5.8c1.1-1.9,2.1-3.9,2.8-6c0.8-2.1,1.4-4.2,1.8-6.4c0.8-4.3,1.1-8.8,0.9-13.2
			c-0.2-4.4-0.8-8.8-1.6-13.1c-0.4-2.2-0.8-4.4-1.3-6.5L975.5,387.2z"/>
		<path class="st2" d="M954.1,485.2c0.3,1.8,0.5,3.6,0.7,5.4s0.4,3.5,0.4,5.4C953.5,492.6,953.1,488.8,954.1,485.2z"/>
		<path class="st2" d="M956.5,559.9c-0.3-3.1-0.3-6.2,0-9.3c0.4-3.1,1-6.2,1.8-9.2c0.9-3,2-5.9,3.3-8.7c1.3-2.8,2.8-5.6,4.4-8.2
			c1.7-2.7,3.4-5.2,5.3-7.7s3.9-4.8,6-7.1c4.2-4.6,8.6-9,13.1-13.3c9-8.5,18.2-16.9,25.7-26.8c1.8-2.5,3.6-5,5.2-7.6
			c1.6-2.6,3.1-5.4,4.3-8.2c1.3-2.8,2.3-5.7,3.2-8.7c0.8-3,1.4-6,1.7-9.1c-0.2,3.1-0.7,6.2-1.4,9.2c-0.8,3-1.8,6-3,8.8
			c-1.2,2.9-2.7,5.6-4.2,8.3c-1.6,2.7-3.3,5.3-5.2,7.8s-3.8,4.9-5.8,7.3s-4.2,4.6-6.4,6.8c-4.3,4.4-8.9,8.7-13.3,13
			c-9,8.5-17.9,17.3-24.5,27.7c-1.7,2.6-3.2,5.3-4.5,8.1c-1.3,2.8-2.5,5.7-3.4,8.6c-0.9,2.9-1.6,5.9-2.1,9
			C956.4,553.7,956.3,556.8,956.5,559.9z"/>
		<path class="st2" d="M1018.4,449.5c-1,5.6-2.6,11.1-4.7,16.3c-2,5.3-4.6,10.4-7.6,15.2c2.3-5.2,4.5-10.4,6.6-15.6
			S1016.5,454.8,1018.4,449.5z"/>
		<path class="st2" d="M1044.4,453.4c-0.8,2.6-1.8,5.2-3,7.7c-1.2,2.5-2.6,4.9-4.2,7.2c-8,11.5-20,19.6-33.8,22.5
			c-2.7,0.6-5.4,0.9-8.2,1c2.7-0.3,5.4-0.9,8.1-1.6c2.6-0.7,5.2-1.5,7.8-2.6c12.7-5.2,23.3-14.7,29.9-26.8
			C1042.3,458.4,1043.5,455.9,1044.4,453.4z"/>
		<path class="st2" d="M1019.6,498.5c-1.1,0.4-2.3,0.8-3.4,1.2l-3.4,1.3l-3.4,1.3l-3.4,1.4c-4.5,1.8-8.9,3.7-13.3,5.8
			s-8.7,4.2-13,6.5l-3.2,1.7l-3.2,1.8l-3.2,1.8c-1,0.6-2.1,1.2-3.1,1.8c2-1.4,4-2.8,6-4.1l3.1-1.9l3.1-1.9c4.2-2.5,8.5-4.7,12.9-6.8
			s8.9-4,13.5-5.6l3.4-1.2l3.5-1.1C1014.9,499.8,1017.3,499.1,1019.6,498.5z"/>
		<path class="st2" d="M825.9,272.1h-37.6c-1.6,0-2.9,1.3-2.9,2.9c0,0,0,0,0,0v26.2c0,1.6,1.3,2.9,2.9,2.9c0,0,0,0,0,0h14.3l4.5,7.7
			l4.4-7.7h14.3c1.6,0,2.9-1.3,2.9-2.9v0V275C828.8,273.4,827.5,272.1,825.9,272.1C825.9,272.1,825.9,272.1,825.9,272.1z"/>
		<path class="st5" d="M807.1,283.3c1.4-2.7,4.7-3.8,7.4-2.5c1.8,0.9,2.9,2.6,3.1,4.6c0.1,2.2-0.6,4.4-2.1,6.1
			c-2.1,2.7-4.7,5-7.8,6.6c-0.3,0.2-0.8,0.2-1.1,0.1c-3.4-2-6.6-4.4-8.7-7.8c-1.5-2.6-1.9-5.2-0.2-7.8c1.7-2.5,5.1-3.1,7.5-1.4
			c0.6,0.4,1.1,0.9,1.5,1.5C806.9,282.8,806.9,283,807.1,283.3z"/>
		<path class="st2" d="M297.9,279.5l-27.7-5.5c-1.2-0.2-2.3,0.5-2.6,1.7c0,0,0,0,0,0l-3.9,19.3c-0.2,1.2,0.5,2.3,1.7,2.6l10.6,2.1
			l2.1,6.4l4.4-5l10.6,2.1c1.2,0.2,2.3-0.5,2.6-1.7l3.9-19.3C299.9,280.9,299.1,279.7,297.9,279.5
			C297.9,279.5,297.9,279.5,297.9,279.5z"/>
		<path class="st5" d="M282.4,285c1.4-1.8,4-2.2,5.8-0.8c1.2,0.9,1.8,2.4,1.6,3.9c-0.3,1.6-1.1,3.1-2.4,4.2c-1.9,1.7-4.2,3-6.7,3.7
			c-0.3,0.1-0.6,0-0.8-0.1c-2.3-1.9-4.1-4.3-5.2-7.1c-0.9-2-0.5-4.3,1-5.8c1.6-1.6,4.2-1.5,5.8,0.1c0.4,0.4,0.7,0.8,0.9,1.3
			C282.3,284.6,282.3,284.7,282.4,285z"/>
		<path class="st2" d="M476.9,241.3c-13.4,0-24.3,10.8-24.4,24.2c0,5.9,2.1,11.6,6,16.1c-0.8,1.8-2.8,5.9-6,7.8
			c0,0,8.6-0.3,12.7-2.4c11.8,6.4,26.6,2.1,33-9.7c6.4-11.8,2.1-26.6-9.7-33C484.9,242.3,480.9,241.3,476.9,241.3L476.9,241.3z"/>
		<circle class="st4" cx="465.9" cy="260.5" r="3.2"/>
		<circle class="st4" cx="487.1" cy="258.4" r="3.2"/>
		<path class="st4" d="M466.4,272.7c5.3,9.5,22.3,5.3,22.3-2.1"/>
		<path class="st2" d="M477.4,537.8c-1.6-1.2-3.9-1-5.3,0.4l-4.7,4.7H388l-4.7-4.7c-1.4-1.5-3.7-1.6-5.3-0.4
			c-1.6,1.3-1.9,3.7-0.6,5.4c0.1,0.1,0.2,0.2,0.3,0.3l6.2,6.2c0.6,0.6,1.4,1,2.3,1h83c0.9,0,1.7-0.4,2.3-1l6.2-6.2
			c1.5-1.5,1.5-3.9,0-5.4C477.6,537.9,477.5,537.8,477.4,537.8z"/>
		<circle class="st6" cx="398.8" cy="556.9" r="6.2"/>
		<path class="st7" d="M400.8,556.9c0,1.1-0.9,2.1-2,2.1c-1.1,0-2.1-0.9-2.1-2c0-1.1,0.9-2.1,2-2.1c0,0,0,0,0,0
			C399.9,554.9,400.8,555.8,400.8,556.9z"/>
		<circle class="st6" cx="456.6" cy="556.9" r="6.2"/>
		<path class="st7" d="M458.6,556.9c0,1.1-0.9,2-2,2s-2-0.9-2-2s0.9-2,2-2C457.7,555,458.6,555.8,458.6,556.9z"/>
		<path class="st8" d="M406.6,526l1,7.8l3.4,4.3l9.9-3.3c0,0,0.1-3,0.3-8.2C416.3,526.5,411.4,526.2,406.6,526z"/>
		<path class="st7" d="M438.3,542.8c0.6-1,0.5-2.3-0.3-3.2c-0.8-0.9-1.8-1.4-3-1.6c-1.2-0.2-2.3-0.2-3.5-0.3c-3.3-0.4-6.5-1.8-9-4
			c0.5-1.2,1-2.5,0.5-3.6c-0.5-0.9-1.4-1.5-2.5-1.7c-2-0.4-4,0.1-5.6,1.3c-1.6,1.3-2.6,3.3-2.7,5.4c-0.7,0-1.4-0.3-1.8-0.9
			c-0.4-0.6-1-1.1-1.6-1.4c-0.8-0.3-1.7-0.3-2.4,0.1c-0.3,0.1-0.6,0.2-0.8,0.5c-0.2,0.2-0.3,0.5-0.2,0.8c0.6,2,0.7,4.2,0.2,6.2
			c-0.3,0.8-0.3,1.7-0.1,2.5L438.3,542.8z"/>
		<path class="st8" d="M320.9,495l-5.8,3.8l-0.2,0.1l-1.8,8l8.1,4.5l0.4,0.8l8-3.9C326.3,504.2,323.4,499.7,320.9,495z"/>
		<path class="st7" d="M320.4,531c0.3,0.7,1.2,1,1.9,0.7c0,0,0.1,0,0.1,0c0.6-0.3,1-0.8,1.3-1.4c0.4-1.1,0.5-2.3,0.1-3.4
			c-0.3-1.1-0.8-2.2-1.3-3.3c-1.1-3.2-1.3-6.6-0.5-9.8c1.2-0.1,2.6-0.2,3.4-1.2c0.6-0.9,0.7-2,0.4-3c-0.5-1.9-1.8-3.6-3.7-4.4
			c-1.9-0.9-4.1-0.9-6,0c-0.3-0.7-0.3-1.4,0-2.1c0.3-0.6,0.5-1.3,0.6-2c-0.1-0.8-0.5-1.6-1.2-2.1c-0.2-0.2-0.5-0.4-0.7-0.5
			c-0.3-0.1-0.6,0-0.8,0.2c-1.5,1.5-3.4,2.5-5.5,2.9l-0.6,0.1c-0.9,0.2-1.3,1.1-1.1,2c0,0.1,0.1,0.2,0.1,0.3L320.4,531z"/>
		<path class="st5" d="M422.4,468.8c-0.2,31.2,0.5,58.9,0.5,58.9l-17.3,4.5l-12.3-118.4l-9.3-32l2.3-3.9l0.8-1.3l29.8,7.2l2.1,0.5
			l0.4,0.1c0,0,2.3,20,2.9,26.2C422.7,413.6,422.6,440.9,422.4,468.8z"/>
		<path class="st5" d="M387.1,376.6c0,0-17.3,13.7-20.2,32.6S372,461,372,461l-54.5,35.8l12.3,13.4c0,0,61.3-27.8,68-37.6
			s-3.5-78.2-3.5-78.2L387.1,376.6z"/>
		<path class="st7" d="M399.3,468.2c0.1-4.4,0.1-8.8,0.1-13.2s-0.1-8.8-0.2-13.2s-0.3-8.8-0.7-13.2c-0.3-4.4-0.9-8.7-1.7-13
			l-0.1-0.4l0.3-0.2l6-3.4l-0.2,0.4c0.3-2.2,0.7-4.3,1-6.5l1-6.5l1-6.5l1.1-6.5l-0.7,6.5l-0.8,6.5l-0.8,6.5
			c-0.3,2.2-0.5,4.3-0.8,6.5v0.2l-0.2,0.1l-5.9,3.5l0.2-0.6c0.9,4.3,1.5,8.8,1.8,13.2c0.3,4.4,0.5,8.8,0.5,13.2s0,8.8-0.2,13.2
			S399.6,463.8,399.3,468.2z"/>
		<path class="st7" d="M395.2,384.7c3.8,1.3,7.7,2.3,11.7,3c2,0.3,3.9,0.5,5.9,0.6c2,0.1,4,0,6-0.1c-1.9,0.6-4,1-6,1
			c-2.1,0.1-4.1,0-6.1-0.4c-2-0.3-4-0.8-5.9-1.5C398.8,386.6,397,385.7,395.2,384.7z"/>
		<path class="st7" d="M397.4,415.4c0.7-5.1,1.6-10.2,2.7-15.2s2.3-10,3.8-15c-0.6,5.1-1.6,10.2-2.7,15.2S398.9,410.5,397.4,415.4z"
			/>
		<path class="st8" d="M397.9,330.9c3.2-6.4,2-20.5,1.8-22.2c0-0.1,0-0.1,0-0.2l17,11.4c-0.4,0.6-0.6,1.2-0.7,1.9l0,0
			c-0.2,1.8-0.2,3.7,0,5.5c0.2,2.1,0.6,4.2,1.2,6.2l-9.1,4L397.9,330.9z"/>
		<path class="st9" d="M416,327.3c-9.8,0.5-13.8-11.5-13.9-11.9c1.4,2.6,3.7,4.6,6.5,5.5c2.4,0.8,4.9,1.2,7.4,1h0.1
			C415.8,323.6,415.8,325.5,416,327.3z"/>
		<path class="st10" d="M429.3,354.9c0,0.9-0.1,1.9-0.3,2.8c-0.9,3.1-2.3,6.1-4.2,8.8l-0.2,0.6l-4.8,14.9l-0.8,2.4l-0.2,0.6
			c-0.7,0.3-1.5,0.5-2.3,0.6c-4.4,0.8-15,1.2-30.2-7.7c-0.2-0.1-0.4-0.2-0.7-0.4c0,0,0.1-0.8,0.2-2c0.4-5.8-0.2-11.6-1.6-17.3
			c-0.4-1.6-0.9-3.3-1.6-4.8c-4.6-11.5,4.1-21.6,8.7-22.5s6.8-1.3,6.8-1.3s11,7.4,19.2,2.7c1.9,1.8,3.9,3.5,6,5
			c2.1,1.4,3.6,3.6,4.1,6.1C428.4,347.1,429,351,429.3,354.9z"/>
		<path class="st6" d="M424.6,367l-4.8,14.9c-7.3-0.3-22.7-3-33.9-6.4c0.4-5.8-0.2-11.6-1.6-17.3C391,360.7,410.6,367.7,424.6,367z"
			/>
		<path class="st7" d="M401.7,334.5c4.6,2.3,10.1,2.5,14.9,0.5C412.2,338.6,405.9,338.3,401.7,334.5z"/>
		<path class="st7" d="M403.4,375.1c6.1-4.5,11.5-9.8,16.2-15.8C416.2,366.2,410.4,371.7,403.4,375.1z"/>
		<path class="st7" d="M412.1,373c0.7-1.2,1.5-2.3,2.5-3.3c0.9-1,1.9-2,2.9-2.9c-0.4,1.3-1.1,2.6-2,3.6
			C414.6,371.6,413.4,372.4,412.1,373z"/>
		<path class="st8" d="M336.6,380.9c-4.3,6.4-8,13.2-10.8,20.3l0,0c-2.6,1.5-8.6,5.1-10.4,7.6c-0.1,0.1-0.1,0.3,0,0.4
			c0.1,0.1,0.1,0.1,0.2,0.1c0.5,0,1.6-0.3,3.8-1.9c0,0-3.6,4.3-3.5,5.3s5.5-3.8,5.5-3.8s-3.6,5.2-3.1,6s5.2-4.5,5.2-4.5
			s-3.4,5.6-2.9,5.8c1.2,0.5,6.2-7.2,6.9-6.6s0.3,2.8-0.1,3.9c-0.1,0.2,0,0.4,0.2,0.5c0,0,0.1,0,0.1,0c0.5,0.1,1.2,0,1.7-1.1
			c1.2-2.6,1.8-5.4,1.9-8.2c0.1-0.1,3.7-3.6,9.1-8.7C338.9,391,337.6,386,336.6,380.9z"/>
		<path class="st2" d="M398.2,329.5c0,0-14.3-2.8-36.1,18.4s-37.4,34.8-37.4,34.8s5.1,17.1,12.3,21.5c0,0,19.5-20.7,23.5-23.5
			s23.3-22.5,23.3-22.5S401.3,339,398.2,329.5z"/>
		<path class="st2" d="M376.9,356.6c0,0,2.7,17.7,1.2,23.8s-26.1,27.6-15,80.3c9.1,1.6,18.4,2.3,27.7,1.9c0,0,0-74.5,5.4-80.6
			s12.5-38.9,2-52.5C398.2,329.5,377.3,339.8,376.9,356.6z"/>
		<path class="st7" d="M378.1,364.4c1-1.2,2.1-2.2,3.4-3.1c1.2-0.9,2.6-1.6,4-2.1c-1,1.2-2.1,2.2-3.4,3.1
			C380.9,363.1,379.6,363.9,378.1,364.4z"/>
		<path class="st7" d="M381.4,362.9c1.4,4,1.9,8.2,1.3,12.4c-0.6,4.2-1.8,8.2-3.5,12c-3.3,7.7-7.9,14.7-10.7,22.5
			c-4.4,11.7-6.1,24.1-5.2,36.6c0.3,4.1,0.9,8.3,1.8,12.3c-1.1-4-1.9-8.1-2.4-12.3c-0.4-4.2-0.6-8.3-0.4-12.5
			c0.4-8.4,2.1-16.6,5-24.5c2.9-7.9,7.5-15,10.9-22.5c1.8-3.7,3-7.7,3.7-11.8C382.8,371.1,382.6,366.9,381.4,362.9z"/>
		<path class="st8" d="M491.5,407.5c0.5-0.7,2.8-0.3,3.9,0.1c0.2,0.1,0.4,0,0.5-0.2c0,0,0,0,0-0.1c0.1-0.8-0.3-1.5-1.1-1.7
			c-2.6-1.2-5.3-1.8-8.2-1.9c-1.9-2-5.5-5.7-9.8-10.3c-1.9,3.6-3.8,7.2-5.6,10.9c4.1,2.4,8.4,4.5,12.8,6.3c1.7,2.9,4.7,7.5,6.8,9
			c0.1,0.1,0.3,0.1,0.4,0c0.1-0.1,0.1-0.1,0.1-0.2c0-0.5-0.3-1.6-1.9-3.8c0,0,4.3,3.6,5.3,3.5s-3.8-5.5-3.8-5.5s5.2,3.5,6,3.1
			s-4.5-5.2-4.5-5.2s5.6,3.3,5.8,2.9C498.7,413.2,490.9,408.3,491.5,407.5z"/>
		<path class="st2" d="M432.2,342.2c-1.2-1.6-2.8-2.9-4.6-3.8c0.1,0.3,0.2,0.7,0.2,1c1.8,10,2.1,20.1,1,30.2
			c12.8,18.1,45.2,39.6,45.2,39.6c4.2-3.1,9.6-10.6,9.6-10.6C477.4,392.7,435.7,346.5,432.2,342.2z"/>
		<path class="st2" d="M445.3,463.9l-7.7-31.9c-3.9-30.6-5.4-69.1-5.4-69.1l-1.3-2v-5.4c0,0,13.3-10.8-13.6-23.2c0,0,8.7,9.9,7.9,26
			c-0.2,3.3-0.5,6.5-1,9.8l-5.3,16.4c0,0,0.7,10.6,1,12.5c1,8.7,2.3,72.2,2.3,72.2s13.2,0,20.6-1.4c1.7-0.3,2.8-2,2.5-3.7
			C445.4,464,445.4,463.9,445.3,463.9z"/>
		<path class="st7" d="M431.9,374.5c-0.3-3.5-0.4-6.9-0.6-10.3s-0.5-6.8-0.8-10.3c1.1,3.3,1.7,6.7,2,10.2
			C432.7,367.6,432.6,371.1,431.9,374.5z"/>
		<path class="st8" d="M425.4,290.8c-1.8-6.2-12.6-9.4-20.8-3.3c-3.8,2.8-5,8.3-5.2,13.5c-0.1-0.1-0.3-0.2-0.5-0.2
			c-1.6-0.4-3.2,0.5-3.8,2c-0.4,1.2-0.3,2.5,0.3,3.5c0.5,0.9,1.3,1.7,2.2,2.2c0.7,0.2,1.4,0.3,2.1,0.4c0.4,3.4,2,6.6,4.4,9.1
			c3.1,3,7.3,4.5,11.6,4c3.4-0.4,8.4-2.1,9.9-5.5c0.3-0.9,0.5-1.8,0.6-2.8c0-0.2,0-0.5,0.1-0.7c0.2-2.1,0.3-4.3,0.4-6.6
			C427,301.1,426.8,295.6,425.4,290.8z"/>
		<path class="st9" d="M426.8,306.3c-0.1,2.2-0.3,4.5-0.4,6.6c-0.3,0-0.6,0-0.9,0c-1.9-0.2-3.2-2-2.9-3.8c0.2-1.7,1.7-3,3.5-3
			C426.3,306.2,426.6,306.2,426.8,306.3z"/>
		<path class="st9" d="M405.5,307.9c-0.2,1.9,1.2,3.5,3.1,3.7c1.9,0.2,3.5-1.2,3.7-3.1c0.2-1.9-1.2-3.5-3.1-3.7c0,0,0,0,0,0
			C407.3,304.7,405.7,306.1,405.5,307.9z"/>
		<path class="st7" d="M421.1,302.6c-0.1,1.1,0.3,2,0.8,2.1s1-0.8,1.1-1.9s-0.3-2-0.8-2.1S421.2,301.5,421.1,302.6z"/>
		<path class="st7" d="M424.3,300.2c-0.2,0.3-0.4,0.6-0.7,0.8c-0.3,0.2-0.7,0.4-1.1,0.4l0,0c-0.2,0-0.4-0.1-0.4-0.3
			c0-0.2,0.1-0.4,0.3-0.4h0.1c0.6,0,1.2-0.2,1.6-0.7l0,0c0,0,0.1-0.1,0.1,0c0,0,0,0,0,0C424.3,300.1,424.3,300.1,424.3,300.2z"/>
		<path class="st7" d="M414.6,302c-0.1,1.1-0.6,2-1.2,1.9s-0.9-1-0.8-2.1s0.6-2,1.2-1.9S414.7,300.9,414.6,302z"/>
		<path class="st7" d="M412,299.1c0.3,0.5,0.9,0.9,1.5,0.9c0.2,0,0.3,0.2,0.3,0.4c0,0.2-0.1,0.3-0.3,0.3h-0.1l0,0
			c-0.4-0.1-0.7-0.3-1-0.6c-0.3-0.3-0.5-0.6-0.6-0.9c0-0.1,0-0.1,0.1-0.1C411.9,299,412,299,412,299.1L412,299.1z"/>
		<path class="st7" d="M421,308.7c-0.4,0.6-1,1.2-1.6,1.6c-0.7,0.4-1.5,0.6-2.2,0.6c-0.8-0.1-1.5-0.4-2.1-0.9
			c-0.3-0.3-0.6-0.5-0.8-0.8c-0.2-0.3-0.4-0.6-0.6-1c0.3,0.2,0.5,0.5,0.8,0.8s0.6,0.5,0.9,0.6c1.1,0.8,2.6,1,3.9,0.3
			C419.9,309.5,420.5,309.1,421,308.7z"/>
		<path class="st7" d="M418.1,312c-0.3,0.2-0.7,0.3-1.1,0.3c-0.4,0-0.7-0.2-1-0.4c0.3,0.1,0.7,0.2,1,0.2
			C417.4,312.1,417.7,312.1,418.1,312z"/>
		<path class="st7" d="M415.9,295.1c-0.4-0.4-0.9-0.6-1.5-0.7c-0.5-0.1-1.1,0-1.6,0.1c-0.5,0.1-1,0.4-1.5,0.7
			c-0.4,0.3-0.8,0.7-1.1,1.2c-0.1,0.2-0.1,0.5,0.1,0.7c0.2,0.1,0.4,0.1,0.5,0l0,0c0.3-0.3,0.6-0.5,1-0.7c0.3-0.2,0.7-0.3,1.1-0.4
			c0.4-0.1,0.8-0.1,1.2,0c0.4,0.1,0.8,0.1,1.2,0h0.1c0.3,0,0.5-0.3,0.4-0.6c0,0,0,0,0,0C416,295.4,416,295.3,415.9,295.1z"/>
		<path class="st7" d="M420.8,295.5c0.5-0.3,1-0.5,1.6-0.4c0.6,0,1.1,0.1,1.6,0.4c0.5,0.2,1,0.5,1.4,0.9c0.4,0.4,0.7,0.8,0.9,1.3
			c0.1,0.2,0,0.5-0.2,0.6c-0.2,0.1-0.4,0-0.5-0.1l0,0c-0.3-0.3-0.6-0.6-0.9-0.9c-0.3-0.2-0.6-0.4-1-0.5c-0.4-0.1-0.8-0.2-1.2-0.2
			c-0.4,0-0.8-0.1-1.2-0.2h-0.1c-0.3-0.1-0.4-0.3-0.3-0.6c0,0,0,0,0,0C420.7,295.7,420.8,295.6,420.8,295.5z"/>
		<path class="st7" d="M418.3,299.3c0.1,0.8,0.2,1.5,0.3,2.3s0.2,1.5,0.3,2.2c0,0.2,0.1,0.4,0.1,0.5c0.1,0.2,0.1,0.4,0.1,0.7
			c0,0.5-0.3,0.9-0.8,1.1c-0.4,0.2-0.9,0.2-1.3,0c-0.4-0.2-0.7-0.4-1-0.7c0.7,0.3,1.5,0.6,2,0.3c0.3-0.1,0.4-0.4,0.4-0.7
			c0-0.2,0-0.3-0.1-0.5c-0.1-0.2-0.1-0.4-0.2-0.6c-0.1-0.8-0.2-1.6-0.2-2.3C418,300.8,418.1,300,418.3,299.3z"/>
		<path class="st7" d="M396.4,303.9c0-0.5,0.2-1,0.6-1.3c0.5-0.3,1.1-0.3,1.5,0c0.5,0.2,0.9,0.6,1.2,1c0.3,0.4,0.5,0.9,0.7,1.3
			c0.1,0.2,0,0.4-0.2,0.4c-0.1,0-0.3,0-0.4-0.1l0,0c-0.3-0.4-0.6-0.7-1.1-0.9c-0.2-0.1-0.3-0.1-0.5,0c-0.2,0.1-0.3,0.3-0.4,0.5
			c-0.2,0.4-0.3,0.9,0,1.2c0.5,0.2,1,0.3,1.5,0.2c-0.5,0.2-1.1,0.3-1.7,0.1c-0.3-0.1-0.5-0.5-0.5-0.8c0-0.3,0-0.6,0.2-0.9
			c0.1-0.3,0.3-0.6,0.5-0.8c0.3-0.2,0.7-0.2,1-0.1c0.6,0.2,1,0.6,1.4,1.1l-0.6,0.3c-0.2-0.8-0.7-1.6-1.4-2c-0.3-0.2-0.8-0.3-1.1-0.2
			C396.7,303.1,396.5,303.5,396.4,303.9z"/>
		<path class="st7" d="M438,323.7c-0.3-2.3-1.2-4.4-2.6-6.2c-1.3-1.8-2.9-3.5-4-5.5s-1.2-4.2-1.9-6.4c-0.9-2.9-0.6-6.1-0.6-9.1
			c0-3.2-1.1-6.3-3-8.8c-1.2-1.9-3-3.3-5.1-4.1c-4-1.8-8.3-2.5-12.6-2.1c-4.3,0.6-9.5,2.5-10.3,6.8c-0.6,3.1,0.2,6.5-1.8,8.9
			c-1.8,2.2-6.2,3.7-7.3,6.3c-0.9,2.1-0.8,4.6-1.3,6.8c-0.5,2.5-1.7,4.7-3.4,6.6c-1,1.2-2.3,2.3-2.6,3.8c-0.2,1.6,0.4,3.2,1.8,4.2
			c1.3,1,2.8,1.6,4.4,2c3.7,1,7.4,1.7,11.2,2c2.1-6.7,1.2-17.9,1.1-20c-0.7,0-1.4-0.1-2-0.4c-1-0.5-1.7-1.3-2.3-2.2
			c-0.6-1.1-0.7-2.4-0.3-3.5c0.4-0.9,1.1-1.5,1.9-1.9c1,3.3,3.5,6,6.7,7.3c-1.1-1.2-1.9-2.6-2.3-4.2c9.1,0.4,17.4-5.4,20-14.2
			c-2.3-0.9-4.8-1.2-7.2-0.9c-3.5,0.2-6.9,1.1-10,2.6c-1.4,0.7-2.7,1.5-3.8,2.5c0.6-2.6,2.1-4.8,4.1-6.5c8.2-6,18.9-2.8,20.8,3.3
			c1.4,4.8,1.7,10.2,1.4,15.5c-0.1,2.2-0.3,4.5-0.5,6.6c0,0.2,0,0.4-0.1,0.7c0,1-0.2,1.9-0.6,2.8c-1.5,3.2-6.3,5-9.7,5.5
			c-0.3,1.8-0.3,3.7-0.1,5.5c0.1,0.7,0.2,1.5,0.3,2.2c4.7,0.3,9.4,0.6,14.1,0.8c1.7,0.2,3.3-0.1,4.9-0.7
			C437.2,328.3,438.3,326,438,323.7z"/>
		<path class="st10" d="M427.5,291c0-5.6-3.7-10.8-9-13.4c-5.6-2.5-12.1-2.5-17.7-0.1c-5.5,2.4-9.9,6.8-12.3,12.3
			c-0.4,0.8-0.6,1.6-0.6,2.4c0,0.9,0.5,1.6,1.2,2.1c1.7,0.9,4.3,1.1,5.7,2.4c1.8,1.7,5,0.2,7.6-0.1C410.9,295.6,420,294.9,427.5,291
			z"/>
		<path class="st10" d="M429.2,290.5c0,0.6-0.3,1.1-0.8,1.2c-9.8,4.1-20.2,6.5-30.8,7.2c-1,0.1-2,0-2.9-0.3c-0.1,0-0.2-0.1-0.3-0.2
			c-0.7-0.5-1-1.4-0.5-2.2c0.2-0.3,0.4-0.5,0.7-0.6c1.4-0.7,2.9-1.1,4.5-1.2c8.1-1.1,16.1-3,23.9-5.8c1.3-0.6,2.6-0.8,4-0.8
			C428.1,288.1,429.1,289.1,429.2,290.5z"/>
		<path class="st7" d="M394,295.9c5.2-1.7,10.5-3,15.8-4.3s10.6-2.4,16-3.2c-5.2,1.7-10.5,3-15.8,4.3S399.4,295,394,295.9z"/>
		<path class="st7" d="M393.2,288.5c-0.1,1.3-0.2,2.6,0,3.9c0.1,1.3,0.4,2.6,0.7,3.9C391.7,294.3,391.4,290.9,393.2,288.5z"/>
		<g>
			<path class="st11" d="M312.9,565.5c14-0.6,28-1,42-1.2c14-0.2,28-0.3,42-0.3s28,0.1,42,0.3s28,0.6,42,1.2c-14,0.6-28,1-42,1.2
				c-14,0.2-28,0.3-42,0.3s-28-0.1-42-0.3S326.9,566,312.9,565.5z"/>
		</g>
		<g>
			<defs>
				<polygon id="SVGID_3_" points="268.5,203.1 279.3,581.9 155,526.6 127.1,528 127.1,507.4 126.9,426.7 126.8,359.8 126.6,278.6 
					126.5,238.2 126.4,189.7 170.8,193.9 207.8,197.4 				"/>
			</defs>
			<clipPath id="SVGID_4_">
				<use xlink:href="#SVGID_3_"  style="overflow:visible;"/>
			</clipPath>
			<g class="st12">
				<path class="st13" d="M228.1,533.9l3.2,13l12.3-3.9c0,0-0.2-3-0.5-8C238.1,534.7,233.1,534.3,228.1,533.9z"/>
				<path class="st14" d="M232.9,553.9c10.7,0.2,21.3-1.1,31.6-3.9c0-2.5-2.5-4.8-4.9-5.4s-4.8-0.2-7.2,0s-5.1,0-7-1.5
					c0.3-0.8-0.1-1.7-0.8-2.1c-0.8-0.3-1.6-0.3-2.4-0.1c-1.4,0.4-2.7,1-3.8,1.8c-0.8,0.7-1.7,1.3-2.7,1.7c-1,0.2-2.1,0-2.9-0.6
					c-0.5-0.3-1-0.6-1.6-0.9c-0.9-0.5-2-0.2-2.5,0.7c0,0,0,0.1,0,0.1c-0.1,0.2-0.2,0.4-0.3,0.6c1.1,2.1,1.7,4.3,1.8,6.7
					C230.1,552.6,231.4,553.8,232.9,553.9z"/>
				<path class="st13" d="M120.6,483.4c-8.2,4.3-13.5,7.1-13.5,7.1l4.3,13.5l17.5-6.6C126.3,492.6,123.6,487.9,120.6,483.4z"/>
				<path class="st14" d="M100,493.8c1.4,10.6,4.3,20.9,8.7,30.7c2.5-0.4,4.4-3.2,4.6-5.6s-0.6-4.8-1.1-7.2s-0.8-5,0.5-7.1
					c0.9,0.2,1.7-0.3,2-1.1c0.2-0.8,0.1-1.7-0.3-2.4c-0.6-1.3-1.4-2.5-2.4-3.5c-0.9-0.7-1.6-1.5-2.1-2.4c-0.4-1-0.3-2.1,0.1-3
					c0.2-0.5,0.4-1.1,0.6-1.7c0.4-1-0.1-2-1.1-2.4c0,0-0.1,0-0.1,0c-0.2-0.1-0.5-0.1-0.7-0.2c-1.9,1.4-4,2.4-6.3,2.8
					C100.9,490.7,99.8,492.2,100,493.8z"/>
				<path class="st7" d="M177.9,394.7c0,0-5,16.7-5.4,28.2s-5.6,34.2-5.6,34.2l-55.7,30.7l4.4,15.9c0,0,64.9-23.4,71.2-28.2
					s18.6-51.6,18.6-51.6l23.4,116.9l15-1.7c0,0-5.2-120.6-16.7-138.4L177.9,394.7z"/>
				<path class="st2" d="M176.2,402.4c2.2,0.6,4.4,1.2,6.6,1.6s4.4,1,6.6,1.4c4.4,0.9,8.9,1.6,13.3,2.1s8.9,0.8,13.4,0.9
					c2.2,0,4.5,0,6.7-0.2c2.3,0,4.5-0.5,6.7-0.7c-4.4,1.1-8.9,1.7-13.4,1.8c-4.5,0.1-9.1-0.1-13.6-0.6c-4.5-0.6-9-1.4-13.4-2.4
					C184.8,405.3,180.4,404,176.2,402.4z"/>
				<path class="st2" d="M210.6,403.4c0,2.6,0,5.2,0,7.8s-0.1,5.2-0.2,7.8v0.2l-0.1,0.1l-4,5l-1.1,1.3l0-1.7
					c0.1-3.5,0.2-6.9,0.4-10.4s0.4-6.9,0.7-10.4c0.1,3.5,0.1,6.9,0.1,10.4s-0.1,6.9-0.1,10.4l-1-0.4l4.1-5l-0.1,0.3
					c0.2-2.6,0.3-5.2,0.6-7.8S210.3,406,210.6,403.4z"/>
				<path class="st2" d="M224.4,408.6c0.1,1.2,0.3,2.5,0.6,3.7c0.3,1.2,0.7,2.3,1.4,3.3c0.6,1,1.4,1.9,2.4,2.5
					c1,0.7,2.1,1.2,3.3,1.6c-1.3,0-2.6-0.2-3.8-0.8c-0.6-0.3-1.2-0.7-1.7-1.1L226,417c-1-1.3-1.7-2.9-1.8-4.6
					C224,411.1,224.1,409.8,224.4,408.6z"/>
				<path class="st2" d="M181.6,404c0.7,2.7,0.3,5.5-0.9,8c-0.7,1.2-1.7,2.3-2.9,3c-1.2,0.7-2.5,1.1-3.9,1.1
					c1.2-0.4,2.4-1.1,3.4-1.8c1-0.8,1.8-1.7,2.4-2.8c0.6-1.1,1-2.3,1.3-3.5C181.2,406.6,181.5,405.3,181.6,404z"/>
				<path class="st2" d="M200.4,421.2c1.2,0.2,2.4,0.6,3.5,1.2c1.1,0.5,2.1,1.2,3.1,2l-0.3-0.1c1.2,0.1,2.4,0.1,3.6,0.1
					c1.2,0,2.5,0.2,3.7,0.5c-1.2,0.2-2.4,0.3-3.6,0.4c-1.2,0.1-2.5,0.2-3.7,0.1h-0.2l-0.1-0.1c-0.9-0.8-1.8-1.5-2.8-2.1
					S201.4,421.9,200.4,421.2z"/>
				<path class="st2" d="M168.3,460.2c-0.4-0.4-0.7-0.8-1-1.2c-0.3-0.4-0.5-0.8-0.7-1.3l-0.4-0.9l1,0.1c0.6,0.1,1.2,0.1,1.9,0.2
					c0.7,0.1,1.3,0.3,1.9,0.6c-0.6,0.2-1.3,0.3-2,0.3c-0.7,0.1-1.3,0-2-0.1l0.6-0.8c0.2,0.5,0.3,0.9,0.4,1.4
					C168.2,459.2,168.3,459.7,168.3,460.2z"/>
				<path class="st13" d="M198.1,328.2c3.9-6,4.5-20.1,4.5-21.9c0-0.1,0-0.1,0-0.2l15.5,13.4c-0.4,0.5-0.7,1.2-0.9,1.8l0,0
					c-0.5,1.8-0.7,3.6-0.7,5.4c0,1.7,0,3.4,0.1,5.1L198.1,328.2z"/>
				<path class="st15" d="M216.5,326.9c-9.8-0.8-12.2-13.1-12.3-13.5c1.1,2.8,3.1,5,5.8,6.3c2.3,1.1,4.7,1.7,7.2,1.9h0.1
					C216.7,323.2,216.5,325,216.5,326.9z"/>
				<path class="st16" d="M243.8,383.1c-2.5,1.3-5,2.6-7.6,3.8c-2.1-3.9-3.9-7.6-5.5-11.2c-4.1-9-7-16.8-8.8-21.8
					c-1.6-4.5-6.3-11.7-5.8-14.3c1.3-6.7,6.3-12.2,14.8-3.2c1.4,1.5,5.2,7.9,6.4,10.8c1.5,3.9,4.2,9.8,7.3,16.7c1,2.2,2.1,4.6,3.2,7
					C250,375.4,248.2,380.8,243.8,383.1z"/>
				<path class="st2" d="M198.9,324.7c-5.1-0.3-10.2,0.2-15.1,1.7c-3.2,0.8-6.1,2.3-8.7,4.4c-2.6,2.1-4.2,5.2-4.4,8.5
					c-0.2,3.4,1.7,6.5,4.7,7.9c3.2,4.8,3.3,11.1,2.7,16.8s-2.3,11.3-3,17s-0.5,11.8,2.5,16.8c8.3,2.2,16.8,3.9,25.3,5
					c8.6,1,17.3,0.9,25.7-1.4c1.1-18.7,1.9-37.5,2.9-56.1c0.2-3,0.3-6.2-1.3-8.8s-4.7-4-7.6-5.2c-2.5-1.2-5.3-2-8.1-2.2
					c-1.8-0.1-3.6,0.3-5.4,0.1C205.3,328.6,201.8,327,198.9,324.7z"/>
				<path class="st16" d="M241.3,359.9c4,3.9,8.3,8.2,9.1,13.8c0.3,2,0.1,4-0.4,5.9c-0.5,1.8-1.6,3.3-3.2,4.2
					c-1.5,0.9-2.9,2-4.2,3.1c-6.1,4.6-14.2,5.5-21.8,6.3c-0.7-1.8-1.2-3.7-1.5-5.7c-0.3-2,0.2-4,1.3-5.7c1.2-1.6,3.1-2.4,4.9-3.4
					c4.8-2.7,8.6-6.8,11.1-11.7C237.8,364.2,238.7,360.9,241.3,359.9z"/>
				<path class="st7" d="M230.3,374.3c2.3-4,6.1-7,10.6-8.3c-1.8,1.4-3.7,2.6-5.4,4S232.1,372.8,230.3,374.3z"/>
				<path class="st7" d="M237.2,364.3c0.3,0.8,0.3,1.7,0.2,2.5c-0.1,0.9-0.5,1.7-1,2.4c-0.3-0.8-0.3-1.7-0.2-2.5
					C236.3,365.8,236.6,365,237.2,364.3z"/>
				<path class="st16" d="M223.6,379c1,0.5,1.6,1.4,1.5,2.5l-0.3,11.6c-0.1,2-0.2,4.2-1.4,5.7c-0.9,1-2.2,1.7-3.6,1.8
					c-1.3,0.1-2.7,0-4-0.3c-3.4-0.7-6.9-1.1-10.3-1.1c-2.7,0-5.4,0.3-8-0.4s-5.1-2.7-5.6-5.6c-0.1-1.5,0-2.9,0.4-4.4l1.8-7.9
					c0.2-1,1-1.8,2-1.9c5-0.6,10.4,1.9,15.3,1.3c2.3-0.3,4.5-1.2,6.8-1.7C220.1,378.2,221.9,378.3,223.6,379z"/>
				<path class="st7" d="M224.7,392.7c0-2.3,0.1-4.4,0-6.6s-0.4-4.3-0.7-6.5C226.2,383.6,226.4,388.4,224.7,392.7L224.7,392.7z"/>
				<path class="st7" d="M206.6,390.5c0.8-0.7,1.7-1.3,2.6-1.9c0.9-0.6,1.8-1.1,2.8-1.6c-0.4,1.1-1.2,2-2.2,2.5
					C208.9,390.2,207.8,390.6,206.6,390.5z"/>
				<path class="st7" d="M210.2,391.4c0.5-0.9,1-1.8,1.7-2.6c0.6-0.8,1.4-1.5,2.2-2.2C213.8,388.8,212.3,390.7,210.2,391.4
					L210.2,391.4z"/>
				<path class="st7" d="M252.2,326.6l0.6,0.4c0.6,0.4,0.8,1.1,0.5,1.7l-10,17.3c-0.4,0.6-1.1,0.8-1.7,0.5l-0.6-0.4
					c-0.6-0.4-0.8-1.1-0.5-1.7l10-17.3C250.8,326.5,251.6,326.3,252.2,326.6z"/>
				<path class="st13" d="M251.7,341.3l-0.1-0.2c0.3-0.8,0.2-1.6-0.2-2.3c0.6-1.4-1-2.2-1-2.2c0.9-1.9-0.2-2.7-0.2-2.7
					c-3.1,2.8-4,3.1-4.2,3.1c0,0,0,0-0.1,0c-0.6-0.7,0.2-2.8,0.8-3.8c0-0.1,0-0.2,0-0.3l0,0c0-0.1-0.1-0.2-0.2-0.2
					c-0.7-0.3-1.6,0-1.9,0.8c-1.7,2.4-2.8,5.1-3.4,7.9l0,0c-1.4,0.9-17.2,11.2-34,22c-5.1-8.8-9.4-16.6-11.8-21.3
					c-1.1-2.3-2.5-4.5-4.1-6.5c-2.4-3.2-6.9-3.8-10.1-1.4c-1.7,1.3-2.7,3.2-2.8,5.4c-0.3,2.7,0.2,6.1,2.2,10.5
					c2.4,5.2,6.2,13.5,11.6,22.8c1.4,2.5,3,5,4.6,7.6c2.6,4,7.9,5.2,11.9,2.6c0.1-0.1,0.2-0.1,0.3-0.2c2.2-1.5,4.4-3.1,6.6-4.8
					c11.2-8.5,22.3-19.3,30.3-32.2l1.9-0.8l2.3-0.8C251.4,343.8,252.1,342.5,251.7,341.3C251.7,341.3,251.7,341.3,251.7,341.3z"/>
				<path class="st17" d="M233.6,345.3c0,0,6.2-4.4,6.8-4.3s5.6,5.2,6,5.6s-4.5,7.4-4.5,7.4S233.9,348,233.6,345.3z"/>
				<path class="st2" d="M233.3,344.8c-8.8,4.2-17,9.4-24.7,15.3c-2.1-7.8-5.7-15.1-10.6-21.6c-2.7-3.6-6-7-11-7
					c-2.7,0-5.3,1.2-7.1,3.2c-2.5,2.6-3.3,6.3-2.2,9.7c0.5,1.5,0.6,3.1,0.5,4.6c0,2.7,0.8,5.4,2.3,7.7c1.8,3.1,4.3,5.9,6.1,9
					c2,3.4,3.4,7.2,5.2,10.7s4.5,6.8,8.1,8.4c3.7,1.3,7.9,1.1,11.4-0.7c3.5-1.8,6.7-4.2,9.3-7.1c2.3-2.4,3-5.7,5.6-7.7
					s5.6-3.5,8.2-5.6c2.8-2.2,5.1-5,6.9-8.1c0.2-0.4,0.5-0.8,0.7-1.3c0.2-0.4,0.1-0.8-0.1-1.1c-2.4-2.8-4.9-5.6-7.5-8.3
					C234.1,344.7,233.6,344.6,233.3,344.8z"/>
				<path class="st7" d="M179.5,354.8c0.5,1.8,1.5,3.5,2.8,4.9c1.3,1.4,2.7,2.7,4,4.1c2.7,2.8,4.3,6.5,5.9,9.9s3.2,7,6.1,9.4
					c2.9,2.4,6.7,3.2,10.3,2.3c0.9-0.2,1.7-0.5,2.6-0.9c0.8-0.4,1.6-1,2.3-1.5c1.5-1.2,2.8-2.5,4.1-3.9c2.5-2.8,4.7-6,7.6-8.7
					s6-4.8,9-7.2c3.1-2.3,5.6-5.2,7.3-8.6c-1.4,3.6-4.1,6.5-7,9s-6.1,4.7-8.8,7.4s-4.9,5.8-7.4,8.7c-1.3,1.5-2.7,2.8-4.2,4.1
					c-0.8,0.6-1.6,1.2-2.5,1.6c-0.9,0.5-1.8,0.8-2.8,1c-4,1-8.1,0-11.3-2.6c-3-2.6-4.8-6.3-6.2-9.8s-2.9-7.1-5.5-9.9
					c-1.2-1.4-2.6-2.8-3.8-4.3C180.8,358.4,179.9,356.7,179.5,354.8z"/>
				<path class="st7" d="M208.5,360.1c-0.5,0.9-1.3,1.7-2.1,2.3c-0.8,0.6-1.8,1.1-2.8,1.4c0.5-0.9,1.3-1.7,2.1-2.3
					C206.5,360.9,207.5,360.4,208.5,360.1z"/>
				<path class="st7" d="M211.2,364.4c-0.6-0.7-1.2-1.5-1.8-2.2s-1.1-1.5-1.7-2.1l1-0.2c-0.3,0.7-0.5,1.5-0.7,2.2s-0.4,1.5-0.6,2.3
					c-0.2-0.8-0.3-1.6-0.2-2.5c0-0.8,0.2-1.7,0.5-2.5l0.3-0.9l0.7,0.7c0.7,0.7,1.3,1.5,1.7,2.4C210.7,362.5,211,363.5,211.2,364.4z"
					/>
				<path class="st7" d="M197.8,338.6c5.9,5.6,9.5,13.2,10.1,21.3C205.8,352.3,202.4,345.1,197.8,338.6z"/>
				<path class="st7" d="M236.1,346.1c0.4-0.8,1-1.5,1.7-2.1c0.7-0.6,1.5-1,2.4-1.2c-0.4,0.8-1,1.5-1.7,2.1
					C237.8,345.5,236.9,345.9,236.1,346.1z"/>
				<path class="st7" d="M237.8,348c0.7-1.9,2.2-3.4,4-4.3c-0.3,1-0.9,1.8-1.6,2.5C239.6,347,238.7,347.6,237.8,348z"/>
				<path class="st7" d="M239.5,350.4c0.8-2.4,2.3-4.5,4.3-5.9C243,346.8,241.5,348.9,239.5,350.4z"/>
				<path class="st7" d="M178.1,346.2c0.8-10.8,10.2-18.8,21-18c0.4,0,0.7,0.1,1.1,0.1c-2.6,0.1-5.1,0.5-7.5,1.4
					c-2.4,0.8-4.6,2.1-6.6,3.7C182,336.7,179.2,341.2,178.1,346.2z"/>
				<path class="st7" d="M203.8,330.2c-0.3,1.9,0,3.8,0.7,5.5c0.7,1.7,1.6,3.4,2.7,4.9c1.1,1.6,2,3.3,2.7,5c0.8,1.8,1,3.8,0.7,5.7
					h-0.1c0.1-1.9-0.3-3.7-1.2-5.4c-0.8-1.7-1.7-3.3-2.8-4.9c-1.1-1.6-1.9-3.3-2.6-5.1C203.4,334.1,203.3,332.1,203.8,330.2z"/>
				<path class="st7" d="M209.7,351.2c-0.1,0.5,0.2,1,0.7,1.1c0.5,0.1,1-0.2,1.1-0.7c0.1-0.5-0.2-1-0.7-1.1
					C210.3,350.3,209.8,350.6,209.7,351.2C209.7,351.2,209.7,351.2,209.7,351.2z"/>
				<path class="st7" d="M214.5,330.9c0.5,1.4,1.5,2.6,2.8,3.4c1.3,0.8,2.6,1.5,4,2.2c1.4,0.7,2.7,1.7,3.6,3
					c0.9,1.3,1.3,2.9,1.2,4.5H226c-0.1-1.5-0.7-2.9-1.6-4.1c-1-1.1-2.2-2.1-3.5-2.7c-1.4-0.7-2.7-1.5-4-2.4
					c-0.6-0.5-1.2-1.1-1.6-1.7C214.9,332.4,214.6,331.7,214.5,330.9z"/>
				<path class="st7" d="M225.2,344c0,0.5,0.4,0.9,0.9,1c0.5,0,0.9-0.4,1-0.9c0-0.5-0.4-0.9-0.9-1
					C225.7,343.1,225.2,343.5,225.2,344C225.2,344,225.2,344,225.2,344z"/>
				<path class="st13" d="M230.3,291.8c-1.1-6.3-11.4-10.8-20.2-5.9c-4.1,2.3-6,7.7-6.8,12.7c-0.1-0.1-0.3-0.2-0.4-0.3
					c-1.5-0.6-3.2,0-4,1.5c-0.6,1.1-0.6,2.4-0.2,3.6c0.4,1,1.1,1.9,2,2.5c0.6,0.3,1.3,0.5,2,0.6c0,3.5,1.1,6.8,3.3,9.5
					c2.7,3.4,6.7,5.4,11,5.4c3.4,0,8.6-1.1,10.5-4.2c0.4-0.8,0.8-1.7,0.9-2.7C229.9,307.4,231.5,299.1,230.3,291.8z"/>
				<path class="st18" d="M219.9,303.4c-0.2-0.9-0.7-1.7-1.5-2.2c-0.4-0.2-0.8-0.4-1.2-0.5l-1.5-0.2c0.2-0.1,0.5-0.2,0.7-0.2
					c0.3,0,0.5-0.1,0.8-0.1c0.6,0,1.1,0.1,1.6,0.4c0.5,0.3,0.9,0.7,1.1,1.3C220.1,302.3,220.1,302.9,219.9,303.4z"/>
				<path class="st18" d="M230.1,303.8c-0.6-0.7-1.5-1.2-2.5-1.2c-0.5,0.1-0.9,0.2-1.3,0.4c-0.4,0.2-0.8,0.5-1.3,0.8
					c0.1-0.2,0.3-0.5,0.4-0.7c0.2-0.2,0.4-0.4,0.6-0.6c0.4-0.4,1-0.6,1.6-0.7c0.6,0,1.2,0.2,1.7,0.6
					C229.7,302.8,229.9,303.3,230.1,303.8z"/>
				<path class="st7" d="M224.2,309.1c-0.5,0.6-1.1,1.1-1.8,1.4c-0.7,0.3-1.5,0.4-2.3,0.3c-0.8-0.2-1.5-0.6-2-1.2
					c-0.2-0.3-0.5-0.6-0.7-0.9c-0.2-0.3-0.3-0.7-0.5-1c0.3,0.3,0.5,0.6,0.7,0.9s0.5,0.5,0.8,0.7c0.5,0.5,1.1,0.8,1.8,0.9
					c0.7,0.1,1.4,0.1,2-0.1C222.9,309.8,223.6,309.5,224.2,309.1z"/>
				<path class="st7" d="M220.9,312.1c-0.3,0.2-0.7,0.2-1.1,0.1c-0.4-0.1-0.7-0.3-0.9-0.5c0.3,0.1,0.7,0.3,1,0.3
					C220.2,312,220.6,312.1,220.9,312.1z"/>
				<path class="st7" d="M220.8,295c-0.3-0.4-0.8-0.7-1.4-0.9c-0.5-0.1-1.1-0.2-1.6-0.1c-0.6,0.1-1.1,0.2-1.6,0.5
					c-0.5,0.3-0.9,0.6-1.2,1c-0.2,0.2-0.2,0.5,0,0.7c0.2,0.1,0.4,0.2,0.6,0l0,0c0.3-0.2,0.7-0.4,1.1-0.6c0.4-0.1,0.7-0.2,1.1-0.2
					c0.4,0,0.8,0,1.2,0.1c0.4,0.1,0.8,0.2,1.2,0.2h0.1c0.3,0,0.5-0.2,0.5-0.5c0,0,0,0,0,0C220.9,295.2,220.9,295.1,220.8,295z"/>
				<path class="st7" d="M225.6,296c0.5-0.3,1.1-0.4,1.6-0.2c0.5,0.1,1.1,0.3,1.5,0.5c0.5,0.3,0.9,0.6,1.2,1.1
					c0.3,0.4,0.6,0.9,0.7,1.4c0.1,0.2,0,0.5-0.3,0.6c-0.2,0.1-0.4,0-0.5-0.2l0,0c-0.2-0.4-0.5-0.7-0.8-1c-0.3-0.3-0.6-0.5-1-0.6
					c-0.4-0.2-0.7-0.3-1.1-0.4c-0.4,0-0.8-0.2-1.2-0.3h-0.1c-0.2-0.1-0.3-0.4-0.2-0.7C225.5,296.1,225.5,296.1,225.6,296z"/>
				<path class="st7" d="M224.4,299.6c0,0.8,0,1.5,0,2.3c0,0.7,0,1.5,0,2.2c0,0.2,0,0.4,0.1,0.5c0,0.2,0,0.4,0,0.7
					c-0.1,0.5-0.5,0.9-0.9,1c-0.4,0.1-0.9,0-1.3-0.2c-0.3-0.2-0.6-0.5-0.9-0.8c0.6,0.4,1.4,0.8,2,0.5c0.3-0.1,0.4-0.4,0.5-0.6
					c0-0.2,0-0.3,0-0.5c0-0.2-0.1-0.4-0.1-0.6c-0.1-0.8,0-1.6,0.1-2.3C224,301.1,224.2,300.3,224.4,299.6z"/>
				<path class="st7" d="M199.8,301c0.1-0.5,0.4-0.9,0.8-1.2c0.5-0.2,1.1-0.2,1.5,0.2c0.4,0.3,0.8,0.7,1,1.1
					c0.2,0.4,0.4,0.9,0.5,1.4c0,0.2-0.1,0.4-0.3,0.4c-0.1,0-0.3,0-0.3-0.1l0,0c-0.2-0.4-0.5-0.7-0.9-1c-0.1-0.1-0.3-0.1-0.5,0
					c-0.2,0.1-0.3,0.3-0.4,0.4c-0.3,0.4-0.5,0.9-0.1,1.2c0.4,0.3,0.9,0.4,1.4,0.4c-0.5,0.2-1.1,0.1-1.6-0.1
					c-0.3-0.2-0.4-0.5-0.4-0.9c0-0.3,0.1-0.6,0.3-0.9c0.1-0.3,0.4-0.5,0.6-0.7c0.3-0.2,0.7-0.2,1,0c0.5,0.3,1,0.7,1.2,1.3l-0.6,0.2
					c-0.1-0.8-0.5-1.6-1.1-2.2c-0.3-0.3-0.7-0.4-1.1-0.3C200.3,300.3,200,300.6,199.8,301z"/>
				<path class="st18" d="M218.2,301.6L218.2,301.6c0.6,0.4,0.8,1.1,0.5,1.8l0,0.1c-0.4,0.6-1.1,0.8-1.7,0.5l0,0
					c-0.6-0.4-0.8-1.1-0.5-1.7l0-0.1C216.8,301.4,217.6,301.2,218.2,301.6z"/>
				<path class="st18" d="M228.2,303.6L228.2,303.6c0.6,0.4,0.8,1.1,0.5,1.8l0,0.1c-0.4,0.6-1.1,0.8-1.7,0.5l0,0
					c-0.6-0.4-0.8-1.1-0.5-1.7l0-0.1C226.8,303.4,227.6,303.2,228.2,303.6z"/>
				<path class="st14" d="M233.1,300.9c-0.5-4.1,1.3-8.4,0.2-12.5c-0.6-2.4-2.2-4.4-4.3-5.6c-2.1-1.1-4.6-1.3-6.9-0.6
					c-3.1-3-7.7-3.7-11.5-1.7c-3.1,1.7-5,5-7.6,7.5c-1.5,1.4-3.2,2.6-4.3,4.3c-0.4,0.6-0.7,1.4-0.8,2.1l0,0c0,0.3,0,0.5-0.1,0.8
					c0,0,0,0.1,0,0.1c-0.6,5.3,1.1,10.7,4.7,14.7c0.1-1.7,0.2-3,0.2-3.6c-0.7-0.1-1.4-0.3-2-0.6c-0.9-0.6-1.6-1.5-2-2.5
					c-0.5-1.2-0.4-2.5,0.2-3.6l0,0c0.7-1.2,2.3-1.6,3.5-0.8c0,0,0,0,0,0c0.9,0.6,1.7,1.3,2.3,2.1c1.5,1.8,2.8,3.9,4.8,5.1
					c1,0.6,2.5,0.8,3.1-0.2c0.2-0.4,0.3-0.9,0.2-1.4c0-2.3-0.1-4.6-0.1-6.9c0-2.5,0-5.4,1.8-7.1c1.3-1.2,3.2-1.7,5-1.3
					c1.7,0.4,3.2,1.5,4.2,3c0,0,2.5-2,4.8-0.8c2,1.1,2.7,6,1.4,15.3c-0.2,1.5-0.5,3-0.8,4.5l0,0.1c0.6,1.2,2.1,1.7,3.3,1.1
					c1.2-0.6,1.9-1.8,2.1-3.1C234.9,306.6,233.4,303.8,233.1,300.9z"/>
			</g>
		</g>
		<g>
			<path class="st11" d="M191.6,554.9c8-0.6,16-1,24-1.2s16-0.3,24-0.3s16,0.1,24,0.3c8,0.2,16,0.6,24,1.2c-8,0.6-16,1-24,1.2
				c-8,0.2-16,0.3-24,0.3s-16-0.1-24-0.3S199.6,555.5,191.6,554.9z"/>
		</g>
		<path class="st19" d="M581.5,535.6l-2,10.9l-0.2,1.1l3.6,3.8l9.2-0.3l0.2-0.7c0.5-1.4,1.7-5,3.4-10
			C590.9,538.9,586.2,537.3,581.5,535.6z"/>
		<path class="st2" d="M578.3,556.7c9.8,4.3,20.1,7.2,30.7,8.5c0.9-2.3-0.5-5.4-2.4-6.8s-4.4-2-6.7-2.8s-4.7-1.9-5.8-4.1
			c0.6-0.6,0.6-1.6,0-2.3c-0.6-0.6-1.4-0.9-2.2-1c-1.4-0.2-2.9-0.1-4.2,0.2c-1,0.4-2.1,0.6-3.2,0.5c-1-0.2-1.9-0.8-2.5-1.7
			c-0.3-0.4-0.7-0.9-1.1-1.4c-0.6-0.8-1.8-1-2.6-0.4c0,0-0.1,0-0.1,0.1c-0.2,0.2-0.3,0.3-0.5,0.5c0.2,2.3-0.1,4.7-0.9,6.8
			C576.1,554.4,576.8,556.1,578.3,556.7z"/>
		<path class="st8" d="M512.4,503c-1.5-2-2.9-3.9-4.3-6c-6.3,3.8-10.5,6.4-11.5,7l-0.2,0.1l0.4,6.5l5.5,6.2l0.4,0.8l13.9-6.4
			C515.2,508.5,513.8,505.8,512.4,503z"/>
		<path class="st2" d="M488.9,509.7c3.2,10.2,7.9,19.8,13.9,28.7c2.3-0.8,3.7-3.9,3.5-6.3s-1.4-4.6-2.3-6.9s-1.7-4.8-0.8-7.1
			c0.9,0,1.6-0.6,1.7-1.5c0-0.8-0.2-1.7-0.7-2.3c-0.8-1.2-1.8-2.2-3-3c-1-0.5-1.8-1.2-2.5-2c-0.5-0.9-0.7-2-0.4-3
			c0.1-0.5,0.2-1.2,0.3-1.8c0.2-1-0.5-2-1.5-2.2c0,0-0.1,0-0.1,0c-0.2,0-0.5,0-0.7-0.1c-1.6,1.7-3.6,3-5.8,3.8
			C489.2,506.6,488.4,508.2,488.9,509.7z"/>
		<path class="st7" d="M617.6,480.9c-0.8,14.6-21.5,67.6-21.5,67.6l-16.9-4.6l12.5-69.6l-10.5-36.9l-14.4,47.2
			c-0.7,2.4-1.9,4.6-3.5,6.5c-7.5,8.9-17.6,15.3-28.8,18.4c-4.6,1.3-9.3,1.9-13.8,3.5c-4.9,1.9-9.6,4.3-14,7.3
			c-1.1-4.4-2.6-8.8-4.5-13c-0.8-1.9-1.7-3.7-2.6-5.6c-0.1-0.2-0.2-0.4-0.3-0.6c1.9-2.8,4.3-5.4,7-7.5c2-1.5,4.1-2.9,6.3-4.1
			c10-5.9,20.2-11.3,30.8-16.1c0,0,1.5-19.2,4.9-41c2-13,5-25.7,9.2-38.2l2.6,0l6.2,0.1l37.6,0.6
			C603.7,395.1,618.4,466.3,617.6,480.9z"/>
		<path class="st10" d="M566.2,394.5c-1.4,22-5.8,79.5-13.5,85.9c-7.1,5.9-42.1,22.9-50.5,26.9c-0.8-1.9-1.7-3.7-2.6-5.6
			c13.3-6.4,43.4-21.3,49.2-26.1c4.1-3.9,8.8-43.8,11.2-81.3L566.2,394.5z"/>
		<path class="st2" d="M581.2,436.4c0.6-2.8,1.4-5.6,2.4-8.3c0.9-2.7,1.9-5.4,3.2-8C585.8,425.9,584,431.4,581.2,436.4z"/>
		<path class="st2" d="M583,437c0.6,0.1,1.1,0.4,1.5,0.9c-0.1,0.5-0.6,0.8-1.1,0.7c-0.5-0.1-0.8-0.6-0.7-1.1
			C582.7,437.4,582.8,437.2,583,437z"/>
		<path class="st2" d="M584.2,436.3c0.5-0.4,1.3-0.3,1.7,0.3c0.1,0.1,0.2,0.3,0.2,0.5c-0.3,0.2-0.8,0.3-1.2,0.1
			C584.5,437,584.3,436.7,584.2,436.3z"/>
		<path class="st2" d="M576.1,435.3c0.2-0.4,0.7-0.5,1.1-0.3c0.2,0.1,0.4,0.4,0.4,0.7c-0.2,0.3-0.6,0.4-0.9,0.4
			C576.4,435.9,576.2,435.6,576.1,435.3z"/>
		<path class="st2" d="M576.9,438.4c0-0.5,0.3-1,0.9-1c0.2,0,0.5,0.1,0.7,0.2c0,0.4-0.2,0.7-0.5,0.9
			C577.6,438.7,577.2,438.6,576.9,438.4z"/>
		<path class="st2" d="M594.2,469.7c-0.2,0.6-0.4,1.2-0.5,1.9c-0.2,0.8-0.5,1.6-0.8,2.4l-1-0.5c0.3-0.6,0.6-1.3,1-1.9
			C593.2,470.8,593.6,470.2,594.2,469.7z M594.2,469.7c-0.2,0.8-0.3,1.5-0.5,2.2c-0.2,0.7-0.5,1.5-0.9,2.1l-1-0.5
			c0.3-0.6,0.6-1.1,1-1.6C593.3,471.2,593.8,470.5,594.2,469.7z"/>
		<path class="st2" d="M585,431.7c2.7,3.9,4.8,8.3,6.1,12.9c1.3,4.6,2.2,9.3,2.7,14.1c1.1,9.5,1.4,19.1,1,28.7
			c-0.2,4.8-0.6,9.5-1.2,14.3c-0.3,2.4-0.6,4.8-1,7.1s-0.8,4.7-1.4,7.1c-1.2,4.6-2.7,9.2-4.4,13.7c-1.7,4.5-3.3,9-4.6,13.5
			c1.1-4.6,2.5-9.2,4.1-13.7c1.6-4.5,3-9,4.1-13.7c1.9-9.3,3-18.8,3.4-28.3c0.5-9.5,0.2-19-0.7-28.5c-0.4-4.7-1.2-9.4-2.4-14
			C589.4,440.1,587.5,435.7,585,431.7z"/>
		<path class="st2" d="M556.7,399.2c0.4,0,0.8,0.1,1.1,0.3c0.3,0.3,0.5,0.6,0.6,1c-0.6,0.3-1.3,0.1-1.6-0.5
			C556.6,399.8,556.6,399.4,556.7,399.2L556.7,399.2z"/>
		<path class="st2" d="M565.9,400.8c1.5-0.7,3.1-1.1,4.7-1.2c1.6-0.1,3.3,0.1,4.9,0.6c0.7,0.3,1.5,0.4,2.2,0.5c0.7,0,1.4-0.2,2-0.6
			c0.8-0.4,1.6-0.7,2.5-0.8c0.8-0.1,1.7-0.1,2.5,0c3.2,0.2,6.4,0.5,9.6,0.8l4.8,0.5c1.6,0.2,3.2,0.4,4.8,0.6c-1.6,0-3.2,0-4.8-0.1
			l-4.8-0.2c-3.2-0.1-6.4-0.4-9.6-0.6c-1.5-0.2-3,0-4.4,0.7c-0.8,0.4-1.7,0.7-2.5,0.6c-0.8-0.1-1.7-0.3-2.4-0.7
			c-1.5-0.6-3-0.9-4.6-0.9C569,400.1,567.5,400.3,565.9,400.8z"/>
		<path class="st7" d="M560,397.7c0.8-0.2,1.6-0.3,2.4-0.2c0.8,0.1,1.6,0.2,2.3,0.6c-0.7,0.5-1.6,0.7-2.4,0.6
			C561.4,398.6,560.6,398.3,560,397.7z"/>
		<path class="st20" d="M572.2,342c2.6-6.7,0.3-20.6,0-22.3c0-0.1,0-0.1,0-0.2l17.9,10c-0.3,0.6-0.5,1.3-0.5,2l0,0
			c-0.1,1.8,0,3.7,0.4,5.5c0.5,2.7,1.2,5,1.2,5L572.2,342z"/>
		<path class="st7" d="M589.9,337c-9.7,1.2-14.6-10.4-14.8-10.8c1.6,2.5,4.1,4.3,6.9,5c2.4,0.6,5,0.7,7.4,0.4h0.1
			C589.4,333.4,589.6,335.2,589.9,337z"/>
		<path class="st10" d="M606.6,350.3c1.6,6.8-0.2,14-1.3,21c-1.2,8.3-1.4,16.6-0.7,25c0.1,1.3-0.8,2.4-2.1,2.6c0,0,0,0,0,0
			c-7.3,0.6-15.2-2.3-22.5-1.7c-4.1,0.3-8.1,1.8-12.2,1.8c-3.5,0-6.9-0.5-10.3-1.3c-1.1-0.3-1.9-1.3-1.8-2.4c0.1-1,0.4-2.1,0.5-3.2
			c0.1-1.8,0.5-3.6,0.7-5.4c0.1-3.3-0.2-6.6-0.9-9.8l-2.5-13.9c-0.7-4.1-2.2-8.4-1.2-12.4c0.5-1.9,1.7-3.5,3.3-4.5
			c3-2,4.3-3.9,7.7-4.8c2.5-0.7,7.1,0,8.7-2c6.5,2.9,13.8,3.4,20.6,1.3c3.7,2,7.1,4,10.9,6C605.1,347.2,606.2,348.6,606.6,350.3z"/>
		<path class="st7" d="M571.3,341.5c6.8,3.9,15,4.2,22.1,0.9c-1.6,1.2-3.3,2.1-5.3,2.7c-3.9,1.1-8,1-11.8-0.5
			C574.4,343.9,572.7,342.9,571.3,341.5z"/>
		<path class="st7" d="M604.2,394c-0.2-1.5-0.3-3-0.4-4.5s-0.1-3-0.2-4.6c-0.1-3,0-6.1,0.2-9.1s0.5-6.1,1-9.1c0.2-1.5,0.5-3,0.8-4.5
			c0.3-1.5,0.6-3,1-4.5l-0.5,4.5c-0.2,1.5-0.3,3-0.5,4.5c-0.3,3-0.5,6-0.7,9.1s-0.4,6-0.5,9.1c-0.1,1.5-0.1,3-0.2,4.5L604.2,394z"/>
		<path class="st7" d="M575,376.8c2.2-2.4,4.5-4.6,6.7-6.9s4.3-4.7,6.5-7.1C585.1,368.5,580.6,373.3,575,376.8L575,376.8z"/>
		<path class="st7" d="M581.8,376.7c0.8-1.6,1.7-3.1,2.7-4.5c1-1.5,2.1-2.9,3.2-4.2C586.7,371.4,584.6,374.5,581.8,376.7
			L581.8,376.7z"/>
		<path class="st20" d="M533.5,360.2c-14.3,10.2-30.8,24.6-41.3,42.7c-1,0.2-1.9,0.5-2.8,1c-2.8,1.7-9.1,5.6-9,6.1s2.6,0.5,2.6,0.5
			s-1.2,1.9,1.4,2.1c0,0-0.5,1.7,1.8,2.2c-0.1,0.9,0.6,1.7,1.4,1.9c1.5,0.3,4-4.4,4.6-4.4s-1,3.5-0.4,4.1s3.3-1.3,4.7-7l0,0
			c0-0.1,0-0.1,0-0.2c0.1-0.4,0.2-0.9,0.3-1.4c1-0.7,27.5-20,48.3-34.5C541.6,368.8,537.6,364.4,533.5,360.2z"/>
		<path class="st10" d="M523.4,363.2c0,0,6.7,13.6,13.1,16.3l30.2-19.6c0,0,6.8-13.3-3.5-18.7C563.3,341.2,544.4,344.4,523.4,363.2z
			"/>
		<path class="st7" d="M554.3,368.2c0.5-0.8,1.1-1.4,1.8-2c0.7-0.6,1.5-1.1,2.3-1.5C557.9,366.6,556.3,368,554.3,368.2L554.3,368.2z
			"/>
		<path class="st7" d="M554.8,368.6c0.4-0.3,0.9-0.5,1.3-0.5c0.5,0,1,0.2,1.4,0.5c-0.3,0.4-0.8,0.7-1.3,0.7
			C555.7,369.3,555.1,369.1,554.8,368.6z"/>
		<path class="st7" d="M525.5,362.2c0.6,1.5,1.5,2.8,2.6,4c1,1.2,2.2,2.3,3.2,3.5c2.2,2.4,4.2,4.9,6,7.5c-2.4-2.1-4.7-4.4-6.8-6.8
			c-1.1-1.2-2.1-2.4-3.1-3.8C526.4,365.4,525.7,363.8,525.5,362.2z"/>
		<path class="st20" d="M649.2,407.8c-5-2.3-16.7-7.9-29.5-14.1c-1.3-4-2.7-8-3.9-11.9l-3.8,1.6c-4,1.7-8.1,3.6-12.3,5.6
			c1.5,4.5,3.3,9.1,5.4,13.8c1,2.2,2.8,3.9,5.1,4.8c5.2,1.9,10.4,3.5,15.8,4.7c11.1,2.7,22.5,4.4,34,5l-1-1.7l1.4-4.7
			C660.3,410.9,650.8,408.6,649.2,407.8z"/>
		<path class="st10" d="M598.2,343.3c0,0,8,1.5,10.5,11s9.6,31.5,9.6,31.5s-10.9,8.7-19.5,8.7C598.8,394.6,580,347.9,598.2,343.3z"
			/>
		<path class="st7" d="M600.5,392.8c2.8-1.5,5.5-2.9,8.1-4.5s5.2-3.3,7.8-5C612.3,388,606.7,391.4,600.5,392.8L600.5,392.8z"/>
		<path class="st20" d="M599,313.8c-0.1-4.7-1-9.4-2.6-13.9c-2.3-6-13.3-8.3-21-1.7c-0.2,0.2-0.4,0.4-0.6,0.6
			c-3,3.2-3.7,8.4-3.5,13.2c-0.1-0.1-0.3-0.1-0.5-0.2c-1.6-0.3-3.1,0.7-3.6,2.2c-0.3,1.2-0.1,2.5,0.5,3.5c0.6,0.9,1.4,1.6,2.4,2
			c0.7,0.2,1.4,0.2,2.1,0.2c0.7,3.4,2.5,6.4,5.1,8.7c3.3,2.8,7.7,3.9,11.9,3c3.3-0.7,8.2-2.8,9.5-6.3c0.3-0.9,0.4-1.9,0.4-2.8
			C599.2,319.7,599.2,316.8,599,313.8z"/>
		<path class="st7" d="M593.5,311.9c0,1.1,0.4,2,1,2s1-0.9,1-2s-0.4-2-1-2S593.5,310.8,593.5,311.9z"/>
		<path class="st7" d="M587,311.9c0,1.1-0.4,2-1,2s-1-0.9-1-2s0.4-2,1-2S587,310.8,587,311.9z"/>
		<path class="st7" d="M594,318c-0.4,0.7-0.9,1.2-1.5,1.7c-1.3,1-3.1,1-4.4,0c-0.3-0.2-0.6-0.5-0.8-0.8c-0.2-0.3-0.5-0.6-0.7-0.9
			c0.3,0.2,0.6,0.5,0.9,0.7s0.6,0.4,0.9,0.6c0.6,0.3,1.3,0.5,2,0.5c0.7,0,1.4-0.2,2-0.5C592.9,319,593.5,318.5,594,318z"/>
		<path class="st7" d="M591.3,321.6c-0.3,0.2-0.6,0.4-1,0.4c-0.4,0-0.7-0.1-1-0.4c0.3,0.1,0.7,0.1,1,0.1
			C590.6,321.7,591,321.6,591.3,321.6z"/>
		<path class="st7" d="M587.8,304.9c-0.4-0.4-1-0.6-1.5-0.6c-0.5,0-1.1,0.1-1.6,0.2c-0.5,0.2-1,0.4-1.4,0.8c-0.4,0.3-0.8,0.8-1,1.2
			c-0.1,0.2,0,0.5,0.2,0.6c0.2,0.1,0.4,0.1,0.5-0.1l0,0c0.3-0.3,0.6-0.6,1-0.8c0.3-0.2,0.7-0.4,1.1-0.4c0.4-0.1,0.8-0.1,1.2-0.1
			c0.4,0,0.8,0,1.2-0.1h0.1c0.3-0.1,0.4-0.3,0.4-0.6C587.9,305.1,587.8,305,587.8,304.9L587.8,304.9z"/>
		<path class="st7" d="M592.7,304.9c0.4-0.4,1-0.6,1.5-0.6c0.5,0,1.1,0.1,1.6,0.2c0.5,0.2,1,0.4,1.4,0.8c0.4,0.3,0.8,0.8,1,1.2
			c0.1,0.2,0,0.5-0.2,0.6c-0.2,0.1-0.4,0.1-0.5-0.1l0,0c-0.3-0.3-0.6-0.6-1-0.8c-0.3-0.2-0.7-0.4-1.1-0.5c-0.4-0.1-0.8-0.1-1.2-0.1
			c-0.4,0-0.8,0-1.2-0.1H593c-0.3-0.1-0.4-0.3-0.4-0.6c0,0,0,0,0,0C592.6,305.1,592.7,305,592.7,304.9z"/>
		<path class="st7" d="M592.3,308.6c0.2,0.8,0.3,1.5,0.5,2.3c0.1,0.7,0.3,1.5,0.5,2.2c0,0.2,0.1,0.3,0.2,0.5
			c0.1,0.2,0.2,0.4,0.2,0.6c0,0.5-0.3,1-0.7,1.2c-0.4,0.2-0.9,0.2-1.3,0.1c-0.4-0.1-0.7-0.3-1-0.6c0.7,0.3,1.5,0.5,2,0.1
			c0.2-0.2,0.4-0.4,0.3-0.7c0-0.2-0.1-0.3-0.2-0.5c-0.1-0.2-0.1-0.4-0.2-0.6c-0.2-0.8-0.3-1.5-0.4-2.3
			C592.1,310.2,592.2,309.4,592.3,308.6z"/>
		<path class="st7" d="M568.4,315c0-0.5,0.2-1,0.5-1.3c0.4-0.3,1-0.4,1.5-0.1c0.5,0.2,0.9,0.5,1.2,0.9c0.3,0.4,0.6,0.8,0.8,1.3
			c0.1,0.2,0,0.4-0.2,0.4c0,0,0,0,0,0c-0.1,0.1-0.3,0-0.4-0.1l0,0c-0.3-0.4-0.7-0.6-1.1-0.8c-0.2-0.1-0.3,0-0.5,0
			c-0.2,0.1-0.3,0.3-0.3,0.5c-0.2,0.4-0.3,1,0.1,1.2c0.5,0.2,1,0.2,1.5,0.1c-0.5,0.3-1.1,0.3-1.6,0.2c-0.3-0.1-0.5-0.4-0.6-0.8
			c0-0.3,0-0.6,0.1-0.9c0.1-0.3,0.2-0.6,0.5-0.8c0.3-0.2,0.7-0.3,1-0.2c0.6,0.2,1.1,0.5,1.5,1l-0.6,0.3c-0.3-0.8-0.8-1.5-1.5-1.9
			c-0.4-0.2-0.8-0.2-1.2-0.1C568.8,314.2,568.5,314.6,568.4,315z"/>
		<path class="st21" d="M574.3,298.4c1.2,1.3,2.7,2.5,4.2,3.5c0.4,3.9-0.8,7.7-3.1,10.8c-0.6,1.2-0.9,2.4-0.9,3.7
			c0,0.1-0.1,0.2-0.2,0.2c-0.1,0-0.1,0-0.1,0c-1.4-1.3-2.4-2.8-3-4.6C571.2,312,569.3,303.8,574.3,298.4z"/>
		<path class="st14" d="M586.3,303.1c1,1.8,2.4,3.3,4.1,4.4c0.8,0.6,1.7,0.9,2.7,0.9c1,0,2.2-0.5,2.4-1.5c0.5,0.7,0.7,1.6,0.8,2.5
			c0.1,0.9,0.2,1.7,0.4,2.6c0.2,0.8,0.5,1.8,1.3,2c0.7,0.1,1.4,0,1.9-0.5c0.5-0.5,0.9-1,1.1-1.7c0.8-2.1,0.8-4.5-0.2-6.6
			c1.5-0.1,2.6-1.3,2.7-2.7c0-1.4-0.4-2.8-1.2-4c-0.6-1.2-1.4-2.3-2.4-3.2c-1-0.9-2.3-1.4-3.6-1.3c0.3-0.4,0.6-1,0.7-1.5
			c0.1-0.5,0-1.1-0.2-1.6c-0.4-0.5-0.9-0.8-1.5-0.9c-0.6-0.1-1.2-0.1-1.7,0.1c-1.5,0.3-2.8,1-4,1.9c0.4-1.3-0.2-2.7-1.3-3.5
			c-1.1-0.7-2.5-0.9-3.8-0.5c-1.3,0.4-2.5,1-3.5,1.9c-3,2.3-5.3,5.3-6.8,8.9c1.4,2,3.3,3.7,5.4,4.9
			C581.7,304.7,584.3,304.5,586.3,303.1z"/>
		<g>
			<path class="st11" d="M528.3,565.5c7.6-0.6,15.2-1,22.8-1.2s15.2-0.3,22.8-0.3s15.2,0.1,22.8,0.3s15.2,0.6,22.8,1.2
				c-7.6,0.6-15.2,1-22.8,1.2s-15.2,0.3-22.8,0.3s-15.2-0.1-22.8-0.3S535.9,566.1,528.3,565.5z"/>
		</g>
		<path class="st22" d="M823.7,549.5l-0.1,4.8v1.1l5.9,4.2l7.3-2.9c0,0,0-0.2,0.1-0.7c0.1-0.8,0.3-2.1,0.6-3.9
			C832.9,551.4,828.3,550.6,823.7,549.5z"/>
		<path class="st7" d="M855.6,565.3c0.9-1.3,0.6-3-0.6-4c-1-0.4-2.2-0.6-3.3-0.6c-2.2-0.3-4.3-0.9-6.3-1.8c-2-0.7-3.8-1.7-5.4-3
			c-0.7-0.8-1.4-1.4-2.2-2c-1.3-0.7-2.8-0.6-4,0.1c-1.2,0.7-2.1,1.9-2.4,3.2c-2.2,0.1-4.3-0.7-5.9-2.2c-0.3-0.4-0.7-0.7-1.2-1
			c-0.4-0.3-1-0.3-1.5,0c-0.4,0.4-0.6,1-0.6,1.6c0,1.7,0,3.3-0.1,5c0,1.4,0.1,3.1,1.2,3.9L855.6,565.3z"/>
		<path class="st22" d="M691.7,533.4l-10-0.1l-3.8,5l2.5,8.2l9.9,1.5C690.7,543.1,691.2,538.2,691.7,533.4z"/>
		<path class="st7" d="M671.6,564.7c1.3,0.9,3,0.6,4-0.6c0.4-1,0.6-2.2,0.5-3.3c0.3-2.2,0.9-4.3,1.8-6.3c0.7-2,1.7-3.8,3-5.4
			c0.7-0.7,1.4-1.4,1.9-2.2c0.7-1.3,0.6-2.8-0.1-4c-0.7-1.2-1.9-2.1-3.3-2.4c-0.1-2.2,0.7-4.3,2.2-5.9c0.4-0.3,0.7-0.7,1-1.2
			c0.3-0.4,0.3-1,0-1.5c-0.4-0.4-1-0.6-1.6-0.5l-5-0.1c-1.4,0-3.1,0.1-3.9,1.2L671.6,564.7z"/>
		<path class="st10" d="M757.3,456.9c0,0-7.7,15.8-8.5,28.2s-9.2,47.4-9.2,47.4l-55.1,0.5l-1.7,14.6c0,0,63.7,11.1,73.5,9.6
			s22.9-68.6,22.9-68.6l14.2-0.8l29.8,13.2l-0.8,51.3l15.7,0.4c0,0,11-63,9.6-66.6c-2-5.4-50.8-29-50.8-29L757.3,456.9z"/>
		<path class="st7" d="M781,463c0,2.1-0.1,4.3-0.2,6.5l-0.3,6.4c-0.1,2.1-0.2,4.3-0.3,6.4l-0.4,6.4l-1-0.5c2.6-2.4,5.1-4.8,7.7-7.2
			l-0.2,0.4l-0.1-7.2c0-1.2,0-2.4,0-3.6s0-2.4,0-3.6c0.1,1.2,0.2,2.4,0.3,3.6s0.2,2.4,0.3,3.6l0.5,7.2v0.2l-0.2,0.2
			c-2.5,2.5-5.1,4.9-7.6,7.4l-1.1,1l0.1-1.5l0.5-6.4c0.2-2.1,0.3-4.3,0.6-6.4l0.6-6.4C780.6,467.3,780.8,465.1,781,463z"/>
		<path class="st7" d="M738.6,537.1c0-0.8,0.1-1.7,0.3-2.5c0.2-0.8,0.4-1.6,0.6-2.4l0.2-0.6l0.6,0.2c0.7,0.3,1.3,0.6,1.9,1
			c0.6,0.4,1.2,0.8,1.7,1.2c-0.7-0.1-1.4-0.2-2.1-0.4c-0.7-0.2-1.3-0.5-1.9-0.7l0.8-0.4c-0.2,0.8-0.5,1.6-0.8,2.3
			C739.4,535.7,739,536.4,738.6,537.1z"/>
		<path class="st7" d="M822.8,501.1c-0.2-0.5-0.2-1,0-1.5c0.2-0.5,0.5-0.9,1-1.1c0.2,0.5,0.2,1,0,1.5
			C823.6,500.4,823.2,500.8,822.8,501.1z"/>
		<path class="st7" d="M824.7,500.9c-0.2-0.5-0.1-1,0.1-1.4c0.2-0.4,0.6-0.8,1.1-0.9c0.2,0.5,0.1,1-0.1,1.4
			C825.6,500.5,825.2,500.8,824.7,500.9z"/>
		<path class="st7" d="M786.9,481.4c6.7,2.8,13.3,5.7,19.9,8.6s13.2,5.9,19.8,8.9l0.3,0.1v0.4c-0.2,4.2-0.4,8.4-0.6,12.7l-0.7,12.7
			l-0.8,12.7c-0.3,4.2-0.6,8.4-0.9,12.7c0.1-4.2,0.2-8.5,0.3-12.7l0.4-12.7l0.5-12.7c0.2-4.2,0.3-8.5,0.6-12.7l0.3,0.5
			c-6.6-3-13.2-6-19.7-9.1S793.4,484.6,786.9,481.4z"/>
		<path class="st7" d="M763,481.5c3.3,0.2,6.3,2,8.1,4.8c-1.5-0.8-2.7-1.6-4.1-2.4S764.4,482.4,763,481.5z"/>
		<path class="st7" d="M764.9,485.6c1,0.1,2,0.4,2.9,0.8c0.9,0.4,1.7,1.1,2.4,1.9c-1-0.1-2-0.3-2.9-0.8
			C766.4,487,765.6,486.4,764.9,485.6z"/>
		<path class="st7" d="M794.4,481.1c0.4-0.9,0.9-1.6,1.7-2.2c0.7-0.6,1.5-1.1,2.4-1.4c-0.4,0.9-0.9,1.6-1.7,2.2
			C796.1,480.3,795.3,480.8,794.4,481.1z"/>
		<path class="st7" d="M797.3,482.3c0-1.2,0.9-2.1,2.1-2.3C799.4,481.2,798.5,482.2,797.3,482.3z"/>
		<path class="st22" d="M797.5,409.6c-3.8-2.4-6.4-3.3-8.2-5.6c-0.2-0.8-0.6-2.6-0.9-4.7c-0.3-1.8-0.4-3.6-0.3-5.5l0,0
			c0.1-0.7,0.3-1.3,0.6-2l-17.6-10.5c0,0.1,0,0.1,0,0.2c0.2,1.7,2.1,14.7-0.3,21.6c-1.6,0.7-3.3,1-5,1c-2.2,0-4.3,0.8-6,2.2
			c-2.3,2.1-4.3,6-3.2,13.4c2.2,14.9,4.2,28.3,3,37.3l36.6,0.9c0,0,0.7-14.6,2.1-25.3C799.4,422.8,803.2,413.2,797.5,409.6z"/>
		<path class="st7" d="M788.4,399.3c-9.7,1-14.4-10.7-14.5-11.1c1.5,2.5,4,4.4,6.8,5.1c2.4,0.7,4.9,0.9,7.4,0.5h0.1
			C788,395.7,788,397.5,788.4,399.3z"/>
		<path class="st5" d="M770.7,402.9l13.2,8.9l5.8-7.5l7,4.5c2.4,1.5,4,4.1,4.3,7c0.3,2.3,0.3,4.7-0.1,7c-0.9,5.5-2.5,33.2-0.9,35.8
			l-12.5,10.3l-6.8-6.6l-4.4,6.7l-17.7-9.6l-3.3,3.4c0,0,3.2-13.9,2.5-20.8s-3.7-37.2-3.7-37.2C759.7,403.2,765.2,402.7,770.7,402.9
			z"/>
		<polygon class="st23" points="784,411.8 789.8,404.3 792.3,414.5 		"/>
		<polygon class="st23" points="784,411.8 770.7,402.9 778.8,416.6 		"/>
		<path class="st7" d="M784.2,412.2c0,2.1-0.1,4.2-0.2,6.3l-0.3,6.3c-0.2,4.2-0.5,8.3-0.7,12.5s-0.6,8.3-1,12.5l-0.6,6.2
			c-0.2,2.1-0.4,4.1-0.7,6.2c0-2.1,0.1-4.2,0.2-6.3l0.3-6.3c0.2-4.2,0.5-8.4,0.7-12.5s0.6-8.3,1-12.5l0.6-6.2
			C783.7,416.4,783.9,414.3,784.2,412.2z"/>
		<path class="st7" d="M760.8,458.1c5.6,1.4,10.9,4,15.3,7.7c-2.7-1.1-5.2-2.4-7.8-3.7S763.3,459.6,760.8,458.1z"/>
		<path class="st7" d="M787.1,466c1.4-2,3-3.8,4.9-5.2c1.9-1.5,3.9-2.8,6.2-3.7c-1.8,1.7-3.6,3.1-5.4,4.6S789.1,464.6,787.1,466z"/>
		<path class="st22" d="M827,385.2c2.1,2.2,4,4.4,6,6.5c10.8-12.2,21.9-27.7,27.7-45.4l-5.7-3.2c0,0-17.7,19-34.3,36.2
			C822.9,381.2,825,383.1,827,385.2z"/>
		<path class="st22" d="M857.6,348.3c0,0,9-5.5,11.1-8.8c0.1-0.1,0.1-0.3-0.1-0.4c-0.1,0-0.1-0.1-0.2,0c-0.5,0-1.6,0.4-3.7,2.1
			c0,0,3.4-4.5,3.2-5.5s-5.2,4-5.2,4s3.3-5.4,2.8-6.2s-4.9,4.8-4.9,4.8s3-5.8,2.5-6c-1.3-0.5-5.8,7.6-6.5,7s-0.4-2.8-0.1-3.9
			c0.1-0.2-0.1-0.4-0.3-0.5c0,0,0,0-0.1,0c-0.5-0.1-1.2,0-1.7,1.2c-1.3,3.4-1.8,7.1-1.2,10.7L857.6,348.3z"/>
		<path class="st5" d="M789.8,404.3l31.5-25.9l13.2,12.2c0,0-4.3,7.1-5.7,8.4s-23.6,21.2-29.1,22.8
			C799.7,421.8,795.2,407,789.8,404.3z"/>
		<path class="st23" d="M825.6,385.5c2,2.4,4.5,4.4,7.3,5.8c0.5,0.3,1,0.4,1.5,0.4c0.6,0,1-0.5,0.9-1.1c0,0,0,0,0,0
			c0.3,0.2,0.8,0.1,1-0.2c0,0,0,0,0-0.1c0.2-0.4,0.2-0.8-0.1-1.2c-0.2-0.4-0.5-0.7-0.8-0.9c-3.9-3.4-7.9-6.6-12-9.8
			c-0.6-0.5-1.7-1.3-2.5-0.8s0,1.7,0.5,2.3C822.7,381.9,824.1,383.8,825.6,385.5z"/>
		<path class="st7" d="M798.8,412c2,2.5,2.7,5.8,2,8.9c-0.5-1.5-0.8-3-1.1-4.4S799,413.5,798.8,412z"/>
		<path class="st22" d="M711.3,408.8c-19.8,1.4-38.1,2.5-39,2.6l0,0c-2.3,0.1-4.5-0.2-6.7-1c0.2,0.2,0.3,0.4,0.2,0.4
			c-0.5,0.4-4.8-1.8-5.8-0.6c-0.6,0.7-0.8,1.6-0.5,2.5c-1.5,1.9,0,2.9,0,2.9c-1.8,1.8,0.6,2.1,0.6,2.1c0.1,0.4,0.3,0.9,0.5,1.3
			c0.2,0.4,5.1,0.7,8.3,0.2c1-0.2,1.9-0.5,2.8-1c14.2,5.3,29.5,7,43.6,7.2C714.6,419.7,713.6,414.1,711.3,408.8z"/>
		<path class="st20" d="M660.2,410c2.2-0.1,4.3-0.1,6.5,0.1c1,0.3,4.9,7.4,5.1,7.9s-1.2,0.2-2.3,0.3c0,0-0.6,1.1-1.5,1.2
			c-0.5,0.8-1.3,1.3-2.2,1.3c0,0-0.4,0.5-1.8,0.5s-6-4.8-6.4-5.3S660.2,410,660.2,410z"/>
		<path class="st22" d="M665.1,409.9c0,0-4.5-1-5.3-1s-1.2,2.6,0.1,2.7c0.9,0,1.7-0.5,2.1-1.2L665.1,409.9z"/>
		<path class="st5" d="M760.4,403.5l-55.4,5.5c0,0,0.5,15.8,1.4,16.2s14,1.9,16.6,1s35.3-4.2,35.3-4.2S768.6,405,760.4,403.5z"/>
		<path class="st23" d="M704.1,408c-0.5,5.1-0.3,10.2,0.5,15.3c0.1,0.8,0.3,1.5,0.8,2.2c0.4,0.7,1.2,1,2,0.7
			c0.2,0.7,1.7,0.3,2.1-0.4c0.3-0.7,0.4-1.5,0.2-2.2c-0.7-4.9-1.7-9.7-2.9-14.4c-0.1-0.7-0.5-1.3-1-1.8
			C705.3,407.1,704.1,407.3,704.1,408z"/>
		<path class="st7" d="M756.3,422.5c0.5-0.4,1.1-0.7,1.7-0.7c0.6-0.1,1.2,0.1,1.8,0.5c-0.5,0.4-1.1,0.7-1.7,0.7
			C757.4,423,756.8,422.8,756.3,422.5z"/>
		<path class="st7" d="M769.8,403.6c0.6,4.9-1.1,9.8-4.7,13.3c1.1-2.1,2-4.3,2.8-6.5C768.7,408.2,769.4,405.9,769.8,403.6z"/>
		<path class="st22" d="M795.7,362.4c-2.2-6-13.1-8.6-20.9-2.1c-3.6,3-4.5,8.6-4.4,13.7c-0.1-0.1-0.3-0.1-0.4-0.2
			c-1.6-0.3-3.2,0.6-3.7,2.2c-0.4,1.2-0.2,2.5,0.5,3.5c0.6,0.9,1.4,1.6,2.4,2.1c0.7,0.2,1.4,0.3,2.1,0.2c0.6,3.4,2.3,6.5,4.9,8.8
			c3.2,2.9,7.6,4.1,11.8,3.3c3.3-0.6,8.3-2.6,9.6-6c0.3-0.9,0.4-1.8,0.4-2.8C798.1,377.8,798.2,369.3,795.7,362.4z"/>
		<path class="st7" d="M792.6,374.4c0,1.1,0.4,2,0.9,2s1-0.9,1-2s-0.4-2-0.9-2S792.6,373.2,792.6,374.4z"/>
		<path class="st7" d="M786,374.2c0,1.1-0.5,2-1,2s-1-0.9-0.9-2s0.5-2,1-2S786,373.1,786,374.2z"/>
		<path class="st7" d="M792.8,380.5c-0.4,0.7-0.9,1.2-1.5,1.6c-1.3,1-3.1,0.9-4.4-0.1c-0.3-0.2-0.6-0.5-0.8-0.8
			c-0.2-0.3-0.4-0.6-0.6-0.9c0.3,0.2,0.6,0.5,0.8,0.7s0.6,0.4,0.9,0.6c0.6,0.4,1.2,0.6,1.9,0.6c0.7,0,1.4-0.1,2-0.5
			C791.7,381.4,792.3,381,792.8,380.5z"/>
		<path class="st7" d="M790.1,384c-0.3,0.2-0.6,0.3-1,0.3c-0.4,0-0.7-0.1-1-0.4c0.3,0.1,0.7,0.1,1,0.1
			C789.4,384.1,789.8,384.1,790.1,384z"/>
		<path class="st7" d="M787,367.2c-0.4-0.4-1-0.6-1.5-0.6c-0.6,0-1.1,0-1.6,0.2c-0.5,0.2-1,0.4-1.4,0.8c-0.4,0.3-0.7,0.8-1,1.2
			c-0.1,0.2-0.1,0.5,0.2,0.6c0,0,0,0,0,0c0.2,0.1,0.4,0.1,0.6,0l0,0c0.3-0.3,0.6-0.5,1-0.8c0.3-0.2,0.7-0.3,1.1-0.4
			c0.4-0.1,0.8-0.1,1.2-0.1c0.4,0.1,0.8,0.1,1.2,0h0.1c0.3-0.1,0.4-0.3,0.4-0.6C787.1,367.5,787.1,367.4,787,367.2z"/>
		<path class="st7" d="M791.9,367.4c0.4-0.4,1-0.5,1.5-0.5c0.6,0,1.1,0.1,1.6,0.3c1,0.4,1.9,1.1,2.4,2.1c0.1,0.2,0,0.5-0.2,0.6
			c-0.2,0.1-0.4,0.1-0.6-0.1l0,0c-0.3-0.3-0.6-0.6-1-0.8c-0.3-0.2-0.7-0.4-1.1-0.5c-0.4-0.1-0.8-0.1-1.2-0.1c-0.4,0-0.8,0-1.2-0.1
			h-0.1c-0.3-0.1-0.4-0.3-0.3-0.6C791.8,367.6,791.8,367.4,791.9,367.4z"/>
		<path class="st7" d="M791.4,371.1c0.2,0.8,0.3,1.5,0.4,2.3c0.1,0.7,0.3,1.5,0.4,2.2c0,0.2,0.1,0.4,0.2,0.5
			c0.1,0.2,0.1,0.4,0.2,0.6c0,0.5-0.3,1-0.7,1.2c-0.4,0.2-0.9,0.2-1.3,0c-0.4-0.1-0.7-0.4-1-0.6c0.7,0.3,1.5,0.5,2,0.1
			c0.2-0.1,0.4-0.4,0.4-0.7c0-0.2-0.1-0.3-0.1-0.5c-0.1-0.2-0.1-0.4-0.2-0.6c-0.2-0.8-0.3-1.5-0.3-2.3
			C791.2,372.6,791.2,371.8,791.4,371.1z"/>
		<path class="st7" d="M767.4,376.9c0-0.5,0.2-1,0.6-1.3c0.5-0.3,1-0.3,1.5-0.1c0.5,0.2,0.9,0.5,1.2,0.9c0.3,0.4,0.6,0.8,0.7,1.3
			c0.1,0.2,0,0.4-0.2,0.4c-0.1,0-0.3,0-0.4-0.1l0,0c-0.3-0.4-0.7-0.6-1.1-0.8c-0.2-0.1-0.3-0.1-0.5,0c-0.2,0.1-0.3,0.3-0.3,0.5
			c-0.2,0.4-0.3,1,0.1,1.2c0.5,0.2,1,0.2,1.5,0.1c-0.5,0.3-1.1,0.3-1.6,0.2c-0.3-0.1-0.5-0.4-0.6-0.8c0-0.3,0-0.6,0.1-0.9
			c0.1-0.3,0.3-0.6,0.5-0.8c0.3-0.2,0.7-0.3,1-0.2c0.6,0.2,1.1,0.5,1.4,1l-0.6,0.3c-0.2-0.8-0.8-1.5-1.5-2c-0.3-0.2-0.8-0.2-1.1-0.1
			C767.7,376,767.4,376.4,767.4,376.9z"/>
		<path class="st2" d="M799.2,365c1.2-1.3,1.7-3.1,1.2-4.8c-0.5-1.7-1.8-3-3.5-3.6c-1.7-0.7-3.5-0.8-5.3-0.2
			c-2-3.8-6.8-5.6-10.9-4.6s-7.2,4.8-8.4,8.9c-3.1-0.5-6.2,1.5-7.5,4.4s-0.7,6.4,0.2,9.4c-3.3,3.4-3.2,8.7,0.2,12
			c1,0.9,2.1,1.6,3.4,2c-0.6,1.3-0.6,2.8,0.1,4.1c0.7,1.2,1.9,1.9,3.2,1.8c0-4.2-0.3-8.4-0.9-12.5c-0.7,0-1.3-0.1-2-0.2
			c-1-0.4-1.8-1.2-2.4-2.1c-0.7-1-0.8-2.3-0.5-3.5c0.5-1.5,1.9-2.4,3.4-2.2c0.6,0.5,1.1,1,1.6,1.7c0.7,1.1,1.5,2.2,2.4,3.1
			c0.9,1,2.3,1.3,3.6,1c-0.9-0.5-1.3-1.6-1-2.5c0.3-0.9,0.7-1.9,1.1-2.7c0.6-1.6,0.6-3.5-0.1-5.1c1-0.2,1.9-0.7,2.4-1.6
			c0.6-0.8,0.9-1.9,0.7-2.9c1,2.5,3.2,4.2,5.8,4.5c2.7,0.2,5.3-1.1,6.7-3.3c-0.4,1.3-0.2,2.6,0.7,3.6c0.9,1.1,2.3,1.7,3.7,1.7
			c-0.3,0.9-0.5,1.9-0.5,2.9c0,1,0.4,2,1.1,2.7v-0.2v0.1c0.8-1,1-2.3,0.6-3.4c1.4-0.8,2.3-2.2,2.6-3.9
			C801.2,367.6,800.5,366.1,799.2,365z"/>
		<g>
			<path class="st11" d="M666.5,565.5c16.1-0.6,32.2-1,48.3-1.2c16.1-0.2,32.2-0.3,48.3-0.3s32.2,0.1,48.4,0.3s32.2,0.6,48.3,1.2
				c-16.1,0.6-32.2,1-48.3,1.2c-16.1,0.2-32.2,0.3-48.4,0.3s-32.2-0.1-48.3-0.3S682.7,566,666.5,565.5z"/>
		</g>
		<path class="st24" d="M986.7,561.2c-7.2,0.9-16.4-5.1-17.7-6.1c0.5-2.8,1.9-11,3.8-21.9c-6.1-0.7-12.1-1.5-18.2-2.4l0.8,21.2
			c-1,3.4-2.2,9-2,10.3c0.2,1.1,1.2,2,2.3,2h31c0.4,0,0.7-0.2,0.9-0.4c0.6-0.6,0.7-1.5,0.2-2.2C987.5,561.3,987.1,561.1,986.7,561.2
			z"/>
		<path class="st7" d="M952.9,560.7l21.9,1.5c0,0-0.4-3.7,2-4s7.9,1.4,10.3,2.5c0.8,0.4,2.7,1.6,0.5,3.6h-33.7
			c-0.5,0-0.9-0.2-1.1-0.6C952.3,562.7,952.4,561.6,952.9,560.7z"/>
		<path class="st24" d="M944.3,558.4c-3.6-2.8-6.7-6.2-9.2-10.1l5.8-13c-1.3-0.3-2.6-0.7-4-1c-4.3-1-8.7-1.9-13-3
			c-1.5,6.4-2.5,10.6-2.7,11.5l0,0c-1.5,2-2.5,4.2-3.2,6.6c-0.3,1.1,0.3,2.3,1.4,2.7l23.9,9.7C943.3,560.6,943.6,559.4,944.3,558.4z
			"/>
		<path class="st7" d="M917.8,550.3l20.1,8.9c0,0,0.8-3.7,3.2-3.1s7,4,8.8,5.8c0.6,0.6,2,2.4-0.7,3.5L917.5,554
			c-0.4-0.2-0.7-0.5-0.8-1C916.6,552,917,551,917.8,550.3z"/>
		<path class="st24" d="M1007.6,342.6L1007.6,342.6l-5.3-3.2l-0.8,1.3c-2.2,3.6-8.6,14.3-16.1,26.5c-1.1-2.8-2.2-5.3-3-7.5
			c-1.3-3.5-3-6.9-5.1-10c-6.1-9-18.8-6.9-20.2,3.3c-0.5,3.8,0.1,8.7,2.9,14.8c2.7,5.9,6.3,13.8,11,22.3c1.2,2.1,2.4,4.2,3.6,6.4
			c3,5,9.6,6.7,14.6,3.6c1.7-1,3.1-2.6,4-4.4c0.8-1.6,1.7-3.3,2.5-5C1002.6,376,1008.2,359,1007.6,342.6z"/>
		<path class="st7" d="M980.4,382.9c-0.5-5.8,1.4-11.5,5.2-15.8C983.1,372.1,981.4,377.4,980.4,382.9z"/>
		<path class="st2" d="M1000.3,327.4c0,0,2.2,13.9,10.7,16.6c0.2,0.1,0.3,0,0.5-0.1c0.9-0.6,4.7-3.2,6-6.4c0.1-0.2,0-0.5-0.2-0.7
			c-2-1.2-10.9-6.6-11.5-11.4L1000.3,327.4z"/>
		<path class="st2" d="M1003.1,312c0,0,11.7-2.9,20.4-17.4l9.3,34.6c-8.1-3.8-17.3-4.6-25.9-2.2L1003.1,312z"/>
		<path class="st25" d="M1031,311.1c2.6,9.6,3.4,17.7,1.8,18.1c-1.2,0.3-3.5-3.9-5.6-10.1c-0.7-2-1.3-4.1-2-6.4s-1.1-4.5-1.5-6.5
			c-1.3-6.5-1.5-11.3-0.2-11.6C1025,294.1,1028.4,301.5,1031,311.1z"/>
		<path class="st6" d="M997.2,313.2l7.5-2l0,0l4.2,15.6l0,0l-7.5,2c-2.6,0.7-5.2-0.8-5.9-3.4l-1.7-6.3
			C993.1,316.5,994.6,313.9,997.2,313.2z"/>
		<path class="st6" d="M993.3,321.2l1.4-0.4l0,0l0.7,2.7l0,0l-1.4,0.4c-0.5,0.1-1.1-0.2-1.2-0.7l-0.2-0.8
			C992.5,321.9,992.8,321.3,993.3,321.2z"/>
		<path class="st6" d="M1028.5,311.8c1,3.7,0.7,7-0.6,7.4c-0.3,0.1-0.5,0-0.8-0.1c-0.7-2-1.3-4.1-2-6.4s-1.1-4.5-1.5-6.5
			c0.1-0.2,0.4-0.4,0.6-0.5C1025.6,305.3,1027.5,308,1028.5,311.8z"/>
		<path class="st24" d="M1007.9,342.5c0,0-1.4-1.6-2.5-2.6c0.2-2-2.3-4.8-2.3-4.8s1.2-4.1-1.1-2.9s-0.5,8.6-0.5,8.6
			c0.4,0.2,0.9,0.4,1.4,0.4l4.7,1.4L1007.9,342.5z"/>
		<path class="st24" d="M1005,334.4c0-1.6,0.6-3.1,1.5-4.4c0.5-0.7,1.1-1.3,1.6-1.1c1.2,0.3,1,1.2,1,1.2s2.2-0.3,2.1,1.6
			c0,0,2,0.4,2.2,1.7c0,0,1.3,1.1,1.4,1.6s-2.9,3-3.4,2.9s-0.1-2-0.1-2s-1.5,2.1-2,1.8s0.3-3.5,0.3-3.5s-2.3,3.1-2.8,2.4
			s0.7-4.1,0.7-4.1s-1.8,3.2-2.3,3C1005.1,335.5,1005,335,1005,334.4z"/>
		<path class="st24" d="M968.8,362.3c-0.9-6.6-3.1-13.1-3-19.9c0-0.2,0-0.5,0.1-0.7c-1-0.5-1.9-1.2-2.6-2c-0.2-0.7-0.3-1.4-0.4-2.1
			c-0.4-1.8-0.5-3.6-0.4-5.5l0,0c0-0.7,0.2-1.4,0.5-2l-17.8-10v0.2c0.3,1.5,2.1,12.8,0.6,20c-1.9,0.7-3.9,1.1-5.9,1.2
			c-2.3,0.1-4.5,0.7-6.4,1.9c-2.6,1.7-5.1,5-4.6,11.5c1,14.4,7.1,29,4.8,40.5l29,0.4c0-0.4,0.1-0.8,0.2-1.2
			c2.2-8.9,4.2-17.9,6.5-26.9c0,0,0,0,0-0.1C969.3,365.8,969.1,364,968.8,362.3z"/>
		<path class="st26" d="M962.9,337.5c-9.7,1.2-14.6-10.4-14.8-10.8c1.6,2.5,4.1,4.3,6.9,5c2.4,0.6,5,0.7,7.4,0.4h0.1
			C962.4,333.9,962.6,335.7,962.9,337.5z"/>
		<path class="st2" d="M983.8,421.3c0-0.3,0-0.7,0-1c-0.8-14.6-7.1-28.8-7.1-28.8s4.2-26.3,4-30.1c-0.1-2.1-2.3-6.8-4.3-10.6
			c-1.7-3.2-4.3-5.8-7.5-7.4c-1.9-1-3.6-2.1-5.3-3.5c1.2,7.3-2.1,26.5-2.1,26.5l-0.7-2.2c-2.4-7.3-6.3-14.1-11.4-19.9l-3.8-4.3
			c0,0-5,0.8-10,1.9s-11.7,12.3-8.6,17.1c2.2,3.4,4.3,19,5.3,27.9c0.4,3.4-0.5,6.9-2.6,9.6c-7.2,8.9-9.6,22-10.5,30.1l0,0
			c-0.3,1.1-0.4,2.3-0.3,3.5c0,3.4,0.4,6.8,1.2,10.1c2.3,9.6,7.2,28.1,13.8,41c-0.7,2.9-2.8,6.4-3.9,9.3c-2,5.4-4.2,10.4-5.2,16.2
			c-1,4.8-1.6,9.7-1.6,14.6c0.1,2.1-0.1,4.2-0.6,6.3c-0.3,1.3-1.5,2.7-1.5,4c6.4,5.1,14.6,7.1,22.6,5.6c0,0,4.7-10.7,9.8-22.8
			c0.6,7,0.4,14-1.9,20.5c7.1,3.9,15.4,5.1,23.4,3.5c3.5-20.1,8.4-40,11-60.2C988.3,459,988.6,439.6,983.8,421.3z"/>
		<path class="st7" d="M943.2,341.5c1.7,1.8,3.3,3.7,4.8,5.6s3,4,4.3,6.1c2.7,4.2,5.1,8.5,7.1,13.1c0.2,0.5,0.4,0.9,0.8,1.3
			c0.3,0.2,0.5,0.2,0.8-0.2c0.3-0.5,0.6-1,0.8-1.5c0.2-0.6,0.5-1.1,0.7-1.7c0.9-2.3,1.6-4.6,2.1-7c0.5-2.4,0.9-4.8,1.1-7.3
			c0.2-2.5,0.2-4.9,0.1-7.4c0.4,2.5,0.5,4.9,0.5,7.4c-0.1,2.5-0.3,5-0.8,7.4c-0.5,2.5-1.1,4.9-2,7.2c-0.2,0.6-0.4,1.2-0.7,1.8
			c-0.2,0.6-0.5,1.2-0.9,1.8c-0.2,0.3-0.6,0.6-1,0.7c-0.5,0.1-1,0-1.3-0.3c-0.5-0.5-0.9-1.1-1.2-1.8c-2-4.5-4.3-8.9-6.8-13.1
			c-1.3-2.1-2.6-4.2-4-6.2C946.2,345.4,944.7,343.5,943.2,341.5z"/>
		<path class="st7" d="M932.8,398c0.2,2.4,0.1,4.8-0.4,7.2c-0.5,2.4-1.2,4.7-2.2,6.9c-1,2.2-2.3,4.2-3.8,6.1c-0.7,1-1.6,1.8-2.6,2.6
			c-1,0.8-2.4,0.8-3.5,0c1,0.6,2.3,0.4,3.1-0.4c0.8-0.8,1.6-1.7,2.2-2.7c1.3-1.9,2.5-3.9,3.5-6.1c1-2.1,1.8-4.3,2.4-6.6
			C932.1,402.7,932.6,400.4,932.8,398z"/>
		<path class="st7" d="M954.1,512.7c0-0.4,0.1-0.9,0.3-1.3l0.4-1.2l0.9-2.4l2-4.9l4.1-9.6c1.3-3.2,2.7-6.4,4-9.6
			c0.3-0.8,0.6-1.6,0.9-2.4c0.3-0.8,0.4-1.6,0.3-2.4c-0.1-1.7-0.2-3.4-0.5-5.1c-0.9-6.9-2.2-13.7-3.4-20.6l-3.8-20.5
			c0.9,3.4,1.7,6.8,2.5,10.2l2.2,10.2c1.4,6.8,2.7,13.7,3.7,20.6c0.2,1.7,0.4,3.5,0.4,5.3c0,0.5,0,0.9-0.1,1.4
			c-0.1,0.5-0.2,0.9-0.3,1.3c-0.3,0.9-0.6,1.7-0.9,2.5c-1.3,3.2-2.7,6.4-4.2,9.6l-4.3,9.5l-2.2,4.7l-1.1,2.4l-0.5,1.2
			C954.3,511.8,954.2,512.2,954.1,512.7z"/>
		<path class="st7" d="M934.4,480.4c0.2-0.1,0.2-0.4,0.3-0.7l0.1-0.8c0-0.2,0.1-0.5,0.1-0.8c0-0.1,0.1-0.3,0.1-0.4
			c0-0.2,0.1-0.3,0.2-0.5l0.9,0.5c-0.4,0.7-0.6,1.5-0.5,2.3c0.1,0.4,0.3,0.7,0.5,1c0.3,0.3,0.7,0.6,1.1,0.8c-0.5,0-1,0-1.5-0.3
			c-0.5-0.2-1-0.7-1.2-1.2c-0.2-0.5-0.2-1.1,0-1.7c0.1-0.5,0.3-1,0.6-1.4l0.9,0.5c0,0-0.1,0.1-0.1,0.2l-0.2,0.3
			c-0.1,0.2-0.2,0.5-0.3,0.7c-0.1,0.2-0.3,0.5-0.4,0.7C934.9,480.1,934.7,480.4,934.4,480.4z"/>
		<path class="st7" d="M923.8,529.6c2.9,1.3,5.8,2.5,8.8,3.4c3,0.9,6.1,1.6,9.2,2.2C935.3,535.7,928.9,533.7,923.8,529.6
			L923.8,529.6z"/>
		<path class="st7" d="M936.9,422.1c1.9,0.5,3.8,1.3,5.4,2.4c1.7,1,3.3,2.3,4.6,3.8c-1.8-0.8-3.5-1.7-5.2-2.8
			C940.1,424.4,938.5,423.3,936.9,422.1z"/>
		<path class="st7" d="M940.5,427.4c2.6,0.5,5,1.7,6.9,3.6C944.8,430.5,942.4,429.3,940.5,427.4z"/>
		<path class="st7" d="M952.8,532.9c6.5,2.8,13.7,3.8,20.8,2.7C966.6,538.2,958.9,537.2,952.8,532.9z"/>
		<path class="st7" d="M977.9,398.3c-0.3,2.1-0.4,4.2-0.4,6.3c0,2.1,0.2,4.2,0.6,6.2c0.4,2,0.9,4.1,1.6,6c0.3,1,0.7,1.9,1.3,2.8
			c0.5,0.9,1.3,1.6,2.2,2.1c-1.1-0.2-2-0.9-2.7-1.7c-0.7-0.9-1.2-1.8-1.6-2.8c-0.9-2-1.5-4-1.9-6.1c-0.4-2.1-0.5-4.3-0.4-6.4
			C976.7,402.4,977.2,400.3,977.9,398.3z"/>
		<path class="st7" d="M959.9,436c0.1-1.1,0.4-2.1,0.9-3c0.5-0.9,1.2-1.8,2-2.4C962.6,432.7,961.6,434.6,959.9,436L959.9,436z"/>
		<path class="st7" d="M967.4,428.7c0.9-1.4,2-2.6,3.2-3.6c1.2-1.1,2.5-2,4-2.8c-0.9,1.3-2,2.6-3.2,3.6
			C970.2,427,968.9,428,967.4,428.7z"/>
		<path class="st6" d="M952.6,374l23.5,4.6c0.7,0.1,1.2,0.9,1.1,1.6l-7.1,35.8c-0.1,0.7-0.9,1.2-1.6,1.1l-23.5-4.6
			c-0.7-0.1-1.2-0.9-1.1-1.6l7.1-35.8C951.1,374.4,951.9,373.9,952.6,374z"/>
		<path class="st24" d="M930.8,378.3c3-4.3,5.8-8.1,8.2-11.2c2.3-2.9,4.3-6.2,5.9-9.6c4.5-9.9-3.9-19.7-13.4-15.5
			c-3.5,1.6-7.3,4.6-11.1,10.2c-2.8,4.2-6.4,9.5-10.1,15.6c-1.1,1.8-2.2,3.8-3.4,5.7c-3.5,6.3-1.3,14.2,4.9,17.7
			c0.8,0.4,1.6,0.8,2.5,1.1c1.8,0.6,3.7,1.1,5.6,1.6c11.5,3.1,23.6,4.8,35.2,3.3l2.7-5.5C957.9,391.8,945.7,385.8,930.8,378.3z"/>
		<path class="st24" d="M954.2,396.4c0,0,7.6,7.4,11.3,8.6c0.1,0.1,0.3,0,0.4-0.1c0-0.1,0-0.1,0-0.2c-0.2-0.5-0.8-1.5-2.9-3
			c0,0,5.2,2.2,6.1,1.8s-5.2-4.1-5.2-4.1s6.1,1.8,6.7,1.2s-5.8-3.6-5.8-3.6s6.3,1.5,6.4,1c0.1-1.3-8.7-3.7-8.4-4.6s2.6-1.1,3.7-1
			c0.2,0,0.4-0.1,0.4-0.3c0,0,0-0.1,0-0.1c0-0.5-0.3-1.2-1.6-1.3c-3.6-0.5-7.2,0-10.6,1.4L954.2,396.4z"/>
		<path class="st7" d="M917.9,374.6c2.3-0.1,4.5,0.1,6.7,0.8c2.2,0.6,4.2,1.6,6.1,2.9c-2.2-0.5-4.3-1.2-6.4-1.8
			S920.1,375.3,917.9,374.6z"/>
		<path class="st24" d="M972,315.8c-0.2-5.3-0.8-10.7-2.6-15.3c-2.3-6-13.3-8.3-21-1.7c-3.6,3.1-4.3,8.7-4.1,13.8
			c-0.1-0.1-0.3-0.1-0.5-0.2c-1.6-0.3-3.1,0.7-3.6,2.2c-0.3,1.2-0.1,2.5,0.6,3.5c0.6,0.9,1.4,1.6,2.4,2c0.7,0.2,1.4,0.2,2.1,0.2
			c0.7,3.4,2.5,6.5,5.1,8.7c3.3,2.8,7.7,3.9,11.9,3c3.3-0.7,8.2-2.8,9.4-6.2c0.3-0.9,0.4-1.9,0.4-2.8v-0.7
			C972.1,320.2,972.1,318,972,315.8z"/>
		<path class="st26" d="M972.1,322.4c-0.3,0.1-0.6,0.1-0.9,0.1c-1.9,0-3.4-1.5-3.4-3.4s1.5-3.4,3.4-3.4l0,0c0.3,0,0.5,0,0.8,0.1
			C972.1,318,972.1,320.2,972.1,322.4z"/>
		<path class="st26" d="M950.9,319.1c0,1.9,1.5,3.4,3.4,3.4s3.4-1.5,3.4-3.4s-1.5-3.4-3.4-3.4C952.4,315.7,950.9,317.2,950.9,319.1
			C950.9,319.1,950.9,319.1,950.9,319.1z"/>
		<path class="st7" d="M966,312.5c0,1.1,0.4,2,1,2s1-0.9,1-2s-0.4-2-1-2S966,311.4,966,312.5z"/>
		<path class="st7" d="M969,309.8c-0.2,0.3-0.4,0.6-0.7,0.9c-0.3,0.3-0.6,0.4-1,0.5l0,0c-0.2,0-0.4-0.1-0.4-0.3c0,0,0,0,0,0
			c0-0.2,0.1-0.4,0.3-0.4h0.1c0.6,0,1.2-0.3,1.6-0.8l0,0c0,0,0.1,0,0.2,0c0,0,0,0,0,0C969,309.8,969,309.8,969,309.8z"/>
		<path class="st7" d="M959.5,312.5c0,1.1-0.4,2-1,2s-1-0.9-1-2s0.4-2,1-2S959.5,311.4,959.5,312.5z"/>
		<path class="st7" d="M956.7,309.7c0.4,0.5,1,0.8,1.6,0.8c0.2,0,0.4,0.1,0.4,0.4c0,0.2-0.1,0.4-0.3,0.4h-0.1
			c-0.4-0.1-0.7-0.3-1-0.5c-0.3-0.2-0.5-0.5-0.7-0.9c0,0,0-0.1,0-0.2C956.6,309.6,956.6,309.6,956.7,309.7L956.7,309.7z"/>
		<path class="st7" d="M966.5,318.6c-0.4,0.7-0.9,1.2-1.5,1.7c-1.3,1-3.1,1-4.4,0c-0.3-0.2-0.6-0.5-0.8-0.8
			c-0.2-0.3-0.5-0.6-0.7-0.9c0.3,0.2,0.6,0.5,0.9,0.7s0.6,0.4,0.9,0.6c0.6,0.3,1.3,0.5,1.9,0.5c0.7,0,1.4-0.2,2-0.5
			C965.4,319.5,966,319.1,966.5,318.6z"/>
		<path class="st7" d="M963.8,322.1c-0.3,0.2-0.6,0.3-1,0.4c-0.4,0-0.7-0.1-1-0.4c0.3,0.1,0.7,0.1,1,0.1
			C963.1,322.3,963.5,322.2,963.8,322.1z"/>
		<path class="st7" d="M960.3,305.5c-0.4-0.4-1-0.6-1.5-0.6c-0.5,0-1.1,0.1-1.6,0.2c-0.5,0.2-1,0.4-1.4,0.8c-0.4,0.3-0.8,0.8-1,1.2
			c-0.1,0.2,0,0.5,0.2,0.6c0,0,0,0,0,0c0.2,0.1,0.4,0.1,0.6-0.1l0,0c0.3-0.3,0.6-0.6,1-0.8c0.3-0.2,0.7-0.4,1.1-0.4
			c0.4-0.1,0.8-0.1,1.2-0.1c0.4,0,0.8,0,1.2-0.1h0.1c0.3-0.1,0.4-0.3,0.4-0.6c0,0,0,0,0,0C960.4,305.7,960.4,305.6,960.3,305.5z"/>
		<path class="st7" d="M965.2,305.5c0.4-0.4,1-0.6,1.5-0.6c0.6,0,1.1,0.1,1.6,0.2c0.5,0.2,1,0.4,1.4,0.8c0.4,0.3,0.8,0.8,1,1.2
			c0.1,0.2,0,0.5-0.2,0.6c-0.2,0.1-0.4,0.1-0.5-0.1l0,0c-0.3-0.3-0.6-0.6-1-0.8c-0.3-0.2-0.7-0.4-1.1-0.4c-0.4-0.1-0.8-0.1-1.2-0.1
			c-0.4,0-0.8,0-1.2-0.1h-0.1c-0.3-0.1-0.4-0.3-0.4-0.6C965.1,305.7,965.2,305.6,965.2,305.5L965.2,305.5z"/>
		<path class="st7" d="M963,309.4c0.2,0.8,0.3,1.5,0.4,2.3c0.1,0.7,0.3,1.5,0.5,2.2c0,0.2,0.1,0.4,0.2,0.5c0.1,0.2,0.2,0.4,0.2,0.6
			c0,0.5-0.3,1-0.7,1.2c-0.4,0.2-0.9,0.2-1.3,0.1c-0.4-0.1-0.7-0.3-1-0.6c0.7,0.3,1.5,0.5,2,0.1c0.2-0.2,0.4-0.4,0.3-0.7
			c0-0.2-0.1-0.3-0.1-0.5c-0.1-0.2-0.1-0.4-0.2-0.6c-0.2-0.8-0.3-1.5-0.4-2.3C962.9,310.9,962.9,310.2,963,309.4z"/>
		<path class="st7" d="M941.5,315.8c0-0.5,0.2-1,0.5-1.3c0.4-0.3,1-0.4,1.5-0.1c0.5,0.2,0.9,0.5,1.2,0.9c0.3,0.4,0.6,0.8,0.8,1.3
			c0.1,0.2,0,0.4-0.2,0.4c-0.1,0.1-0.3,0-0.4-0.1l0,0c-0.3-0.3-0.7-0.6-1.1-0.8c-0.2-0.1-0.3,0-0.5,0c-0.2,0.1-0.3,0.3-0.3,0.5
			c-0.2,0.4-0.3,1,0.1,1.2c0.5,0.2,1,0.2,1.5,0.1c-0.5,0.3-1.1,0.3-1.6,0.2c-0.3-0.1-0.5-0.4-0.6-0.8c0-0.3,0-0.6,0.1-0.9
			c0.1-0.3,0.2-0.6,0.5-0.8c0.3-0.2,0.7-0.3,1-0.2c0.6,0.2,1.1,0.5,1.5,1l-0.6,0.3c-0.3-0.8-0.8-1.5-1.5-1.9
			c-0.3-0.2-0.8-0.2-1.2-0.1C941.8,315,941.6,315.3,941.5,315.8z"/>
		<path class="st10" d="M986.1,350.6c0,0,0-0.1,0-0.1c-0.7-3.7-2.3-7.2-2.6-11s0.8-7.8,0-11.6c-0.9-4.2-3.9-7.5-6.5-10.9
			s-5.6-7.8-4.3-11.9c0.7-2,0.7-4.2-0.1-6.2c-3.3-7.7-11.6-9.2-18.3-7c-4.4,1.5-8.1,4.8-11.4,8.1c-0.7-0.2-1.5-0.1-2.1,0.4
			c-0.5,0.6-0.7,1.5-0.6,2.3c0.3,4.7-1.2,9.3-4.2,13c-2,2.4-4.7,4.4-6.3,7.1s-1.9,6.7,0.6,8.6c-3.1,3.9-4.8,8.8-4.6,13.8
			c0,0.3,0,0.5,0.1,0.8c1.7-1.6,3.7-3,5.8-4c2-0.9,4.2-1.2,6.4-0.8c4.1-0.9,7.7-1.4,7.7-1.4l0.2,0.3c1.4-6.9-0.3-17.6-0.6-19.7
			c-0.7,0-1.4,0-2.1-0.2c-1-0.4-1.8-1.1-2.4-2c-0.7-1-0.9-2.3-0.6-3.5c0.4-1.6,2-2.5,3.6-2.3c0.1,0,0.2,0.1,0.3,0.1l0.2,0.4
			c0.3,0.6,0.7,1,1.3,1.3c0.8,0.2,1.6-0.2,2.1-0.9c0.4-0.7,0.6-1.5,0.7-2.3c0.7,0.2,1.4,0.1,2-0.3c0.5-0.4,0.9-1,1.2-1.6
			c0.8-1.8,0.9-3.8,0.3-5.7c2.5-0.6,5.1-1,7.6-1.1c2.6-0.1,5.2,0.5,7.5,1.7c2.2,1.2,3.8,3.2,4.4,5.5c0.2,2,0.4,4.1,0.5,6.2
			c0.1,2.2,0.1,4.5,0.1,6.6v0.7c0,1-0.1,1.9-0.4,2.8c-1.2,3.4-5.9,5.5-9.2,6.2l0,0c-0.1,1.8,0,3.7,0.4,5.5c0.1,0.8,0.3,1.5,0.4,2.2
			c0.1,0.1,0.3,0.3,0.4,0.4c0-0.1,0-0.2,0-0.3c1.6,1.3,3.4,2.5,5.3,3.5c0.8,0.4,1.6,0.9,2.3,1.4l0,0c2.5,1,4.5,2.7,6,4.9
			c2,3,3.7,6.2,4.9,9.6C985.2,357.4,986.7,354,986.1,350.6z"/>
		<g>
			<path class="st11" d="M906.5,565.5c7.4-0.6,14.8-1,22.1-1.2s14.8-0.3,22.2-0.3s14.8,0.1,22.1,0.3s14.8,0.6,22.2,1.2
				c-7.4,0.6-14.8,1-22.2,1.2s-14.8,0.3-22.1,0.3s-14.8-0.1-22.2-0.3S913.9,566.1,906.5,565.5z"/>
		</g>
	</g>
	<g id="Function-1">
		<g class="st27">
			<g>
				<defs>
					<ellipse id="SVGID_5_" cx="528.2" cy="856.7" rx="58.3" ry="60.2"/>
				</defs>
				<clipPath id="SVGID_6_">
					<use xlink:href="#SVGID_5_"  style="overflow:visible;"/>
				</clipPath>
				<g class="st28">
					<path class="st2" d="M549.6,764.9c0-0.3-0.1-0.6-0.4-0.8h-0.2h-0.2c-0.2,0-0.4,0-0.5,0.2c-0.2,0.1-0.3,0.3-0.3,0.5v0.2v0.1
						c0.1,0.3,0.4,0.6,0.8,0.5C549.3,765.6,549.6,765.3,549.6,764.9z"/>
					<path class="st2" d="M554.7,765.6l0.1,0.2l0.1,0.1c0,0.1,0.1,0.2,0.2,0.2l0,0l0,0c0,0,0.1,0.1,0.1,0.1h0.3l0,0h0.1l0.2-0.1
						l0.2-0.1l0,0l0,0l0,0l0.1-0.1l0.1-0.2c0-0.2,0-0.4-0.1-0.5c-0.1-0.2-0.3-0.3-0.5-0.3C555.2,764.9,554.8,765.2,554.7,765.6z"/>
					<path class="st2" d="M556.9,757c-0.2,0.1-0.3,0.4-0.4,0.6c0,0,0,0.1,0,0.1v0.1v0.1v0.1l0.1,0.1v0.1l0.1,0.1l0.1,0
						c0.3,0.1,0.6,0.1,0.9,0c0.2-0.1,0.4-0.3,0.4-0.6c0-0.2,0-0.4-0.1-0.5l0,0v-0.1l-0.1-0.1l-0.2-0.1l-0.1-0.1
						C557.4,756.8,557.1,756.9,556.9,757z"/>
					<path class="st2" d="M563.9,767.2c0,0.1,0,0.1,0,0.2v0.1l0.1,0.2c0,0.3,0.2,0.5,0.5,0.6c0.3,0.1,0.7,0,0.9-0.2l0-0.1v-0.3l0,0
						v-0.1v-0.1v-0.2l0-0.1l-0.1-0.1l0,0l-0.1-0.1l-0.1-0.1l-0.2-0.1h-0.1C564.4,766.5,564,766.8,563.9,767.2z"/>
					<path class="st2" d="M531.7,764l0.2,0.1h0.1h0.3c0.1,0,0.3-0.1,0.4-0.2l0.1-0.1l0.1-0.2v-0.1v-0.3c0-0.1-0.1-0.2-0.2-0.3
						l-0.1-0.1l-0.2-0.1h-0.1H532c-0.1,0-0.2,0.1-0.3,0.2l-0.1,0.1l-0.1,0.2v0.1v0.3C531.5,763.7,531.5,763.8,531.7,764L531.7,764z"
						/>
					<polygon class="st2" points="536.1,764 536.1,764 536.1,764 					"/>
					<path class="st2" d="M534.4,754.2l0.1-0.1l0.1-0.3v-0.2v-0.1c0-0.3-0.1-0.5-0.3-0.7l-0.1-0.1H534h-0.2h-0.2h-0.1l-0.1,0l0,0
						c-0.2,0.1-0.4,0.2-0.5,0.4v0.1v0.2v0.3l0.1,0.2l0.1,0.1c0.1,0.1,0.1,0.2,0.2,0.3C533.7,754.5,534.1,754.5,534.4,754.2z"/>
					<path class="st2" d="M542.6,757v0.3v0.1l0.1,0.2l0,0.1v0.1h0.1c0.3,0.3,0.8,0.2,1.1-0.1c0.3-0.3,0.3-0.7,0-1l-0.1-0.1l-0.2-0.1
						h-0.1h-0.2C543,756.4,542.6,756.6,542.6,757L542.6,757z"/>
					<path class="st2" d="M555.6,758.5l0.1,0.1l0.2,0.1h0.2h0.2h0.1c0.1,0,0.3-0.1,0.4-0.2l0.1-0.1l0.1-0.2v-0.1V758v-0.1v-0.2v-0.1
						c0-0.1-0.1-0.1-0.2-0.2c-0.3-0.3-0.8-0.3-1.1,0C555.3,757.8,555.3,758.3,555.6,758.5L555.6,758.5L555.6,758.5z"/>
					<path class="st2" d="M544.9,765.7v0.2v0.1c0,0.1,0.1,0.2,0.2,0.3l0.1,0.1l0.2,0.1h0.1h0.2c0,0.1,0.1,0.1,0.1,0.2l0.1,0.1
						l0.1,0.1l0.1,0.1l0.2,0.1h0.1h0.2h0.1c0.2-0.1,0.4-0.3,0.4-0.6c0-0.2-0.1-0.5-0.3-0.6c-0.2-0.1-0.4-0.2-0.6-0.2l0,0l-0.1-0.2
						l-0.1-0.1c-0.3-0.2-0.7-0.2-1,0l-0.1,0.1L544.9,765.7L544.9,765.7z"/>
					<path class="st2" d="M538.3,765.6v-0.2c0-0.1,0.1-0.1,0.1-0.2c0.1-0.3,0-0.5-0.2-0.7l-0.1-0.1l-0.2-0.1l0,0h-0.2h-0.1h-0.2
						h-0.1l-0.2,0.1l-0.1,0.1c-0.1,0.1-0.2,0.3-0.2,0.5v0.1c-0.2,0.3-0.1,0.7,0.2,0.9l0,0l0.1,0.1h0.1h0.1h0.2
						C537.9,766.1,538.2,765.9,538.3,765.6z"/>
					<path class="st2" d="M553.8,765v0.2v0.1c0,0.1,0.1,0.2,0.1,0.3l0.1,0.1l0.2,0.1h0.1h0.2h0.1c0.2-0.1,0.4-0.2,0.5-0.4v-0.1v-0.2
						v-0.1V765v-0.1l-0.1-0.2l-0.1-0.1c-0.3-0.2-0.7-0.2-1,0l-0.1,0.1l-0.1,0.2L553.8,765z"/>
					<path class="st2" d="M522.5,761.7v-0.2v-0.2v-0.1l0,0c0-0.1-0.1-0.3-0.2-0.4c-0.3-0.2-0.7-0.2-1,0.1l-0.1,0.1v0.1
						c-0.2,0.3-0.1,0.6,0.1,0.9l0.1,0.1l0.2,0.1h0.1h0.2c0.2,0,0.3-0.1,0.4-0.2l0.1-0.1L522.5,761.7z"/>
					<path class="st2" d="M525,767.7L525,767.7l0.2-0.2l0,0c0.1-0.2,0.2-0.4,0.1-0.6l0,0v-0.1l0,0v-0.1l0,0l-0.1-0.1l0,0
						c-0.1-0.1-0.3-0.1-0.5-0.2h-0.1h-0.2l-0.1,0l-0.1,0.1l-0.1,0.1l-0.1,0.2v0.1c0,0.3,0.1,0.7,0.3,0.9
						C524.7,767.9,524.9,767.8,525,767.7z"/>
					<path class="st2" d="M513.4,762l0.2,0.1h0.1c0.2,0,0.3,0,0.5-0.1c0.1-0.1,0.2-0.1,0.2-0.2l0-0.1v-0.1v-0.1
						c0.1-0.3-0.1-0.7-0.4-0.8l0,0l-0.1-0.1l-0.1-0.1h-0.1h-0.2h-0.1c-0.1,0-0.1,0.1-0.2,0.1c-0.3,0.2-0.4,0.6-0.3,0.9l0.1,0.1
						l0.2,0.3L513.4,762z"/>
					<path class="st2" d="M544,763.6c0.3-0.2,0.4-0.5,0.3-0.8l-0.1-0.2l-0.2-0.1c-0.1-0.1-0.3-0.2-0.5-0.3c-0.2,0-0.4,0-0.6,0.1
						l-0.1,0.1l-0.1,0.1l-0.1,0.1c-0.2,0.3-0.1,0.7,0.2,0.9C543.3,763.8,543.7,763.8,544,763.6z"/>
					<path class="st2" d="M521.8,755l0.1,0h0.3h0.1c0.1,0,0.2-0.1,0.2-0.1c0.3-0.2,0.4-0.5,0.3-0.8c-0.1-0.4-0.4-0.6-0.7-0.7h-0.1
						H522h-0.1l-0.2,0.1c-0.2,0.1-0.4,0.4-0.4,0.7C521.3,754.5,521.5,754.8,521.8,755L521.8,755z"/>
					<path class="st2" d="M546.9,767.9l-0.1,0.2v0.2c0,0.1,0,0.2,0,0.3l0,0l0,0l0,0c0,0,0,0.1,0,0.2l0.2,0.2l0,0l0.1,0.1l0.2,0.1
						h0.2l0,0l0,0l0,0h0.2l0.2,0c0.2-0.1,0.3-0.3,0.3-0.5c0-0.2,0-0.4-0.1-0.6C547.8,767.7,547.3,767.6,546.9,767.9
						C546.9,767.9,546.9,767.9,546.9,767.9z"/>
					<path class="st2" d="M529.6,767.5c-0.3,0.2-0.5,0.7-0.3,1.1l0.1,0.1l0.2,0.2l0.1,0.1l0.2,0.1h0.1h0.3h0.1l0.2-0.1l0.1-0.1
						l0.1-0.2v-0.1v-0.2v-0.1l-0.1-0.2h-0.2l0.1-0.1l-0.1-0.2l-0.1-0.1l-0.2-0.1h-0.2h-0.3L529.6,767.5L529.6,767.5z"/>
					<path class="st2" d="M517.2,765.4L517.2,765.4c-0.2,0.2-0.3,0.6-0.2,0.9l0.1,0.1l0.2,0.2l0,0c0.2,0.2,0.6,0.2,0.8,0
						c0.1-0.1,0.2-0.1,0.2-0.2v-0.1v-0.2v-0.2v-0.1l-0.1-0.2v-0.1c-0.2-0.3-0.6-0.5-0.9-0.3l-0.1,0.1L517.2,765.4z"/>
					<path class="st2" d="M499.4,766.9l0.1-0.1l0.2-0.2l0-0.1v-0.2v-0.1c0-0.1,0-0.3,0-0.4l-0.1-0.1l-0.1-0.2l-0.1-0.1l-0.1-0.1
						h-0.1H499h-0.1c-0.1,0-0.2,0.1-0.2,0.1c-0.4,0.2-0.5,0.7-0.2,1.1C498.6,767,499.1,767.1,499.4,766.9z"/>
					<path class="st2" d="M524.3,761.9L524.3,761.9h0.2h0.1c0.1,0,0.3,0,0.4,0l0.1-0.1l0.2-0.2l0.1-0.1v-0.2v-0.1l0-0.2v-0.1
						c-0.2-0.4-0.7-0.5-1-0.2c0,0,0,0,0,0c0,0-0.1,0.1-0.1,0.1l-0.1,0.1l-0.1,0.2v0.1v0.2v0.2v0.1l0.1,0.1l0.1,0.1L524.3,761.9z"/>
					<path class="st2" d="M554.7,763.8c-0.2-0.1-0.5,0-0.7,0.1l-0.1,0.1l0,0.1l-0.1,0.1v0.1v0.1v0.3c0.1,0.3,0.3,0.6,0.5,0.7
						c0.2,0.1,0.5,0.1,0.7-0.1c0.1-0.1,0.3-0.3,0.3-0.4l0,0v-0.1v-0.1v-0.2v-0.1C555.3,764,555,763.8,554.7,763.8z"/>
					<path class="st2" d="M533.1,765.8L533.1,765.8l0.2,0.1h0.1h0.2h0.1l0.1-0.1c0.2-0.1,0.3-0.3,0.3-0.5c0-0.2-0.1-0.5-0.2-0.7
						l-0.1-0.1l-0.2-0.1h-0.1h-0.1h-0.1h-0.2h-0.1h-0.1c-0.4,0.2-0.5,0.7-0.2,1.1l0.1,0.1L533.1,765.8z"/>
					<path class="st2" d="M536.4,768.8c0.2,0.4,0.7,0.5,1.1,0.2l0.1-0.1l0.1-0.1l0-0.1v-0.1v-0.1v-0.2l0,0c0.1-0.4-0.3-0.8-0.7-0.9
						c0,0,0,0,0,0h-0.2h-0.1l-0.2,0.1C536.2,767.9,536.1,768.4,536.4,768.8C536.4,768.8,536.4,768.8,536.4,768.8z"/>
					<path class="st2" d="M533,756.5v-0.2v-0.2c-0.1-0.2-0.3-0.3-0.5-0.4c-0.2-0.1-0.4,0-0.6,0.1l-0.1,0.1l-0.1,0.1l-0.1,0.2v0.1
						v0.2v0.2v0.1l0.1,0.2l0.1,0.1l0.2,0.1h0.2h0.3l0.2,0h0.1l0,0v0l0,0C532.9,757.1,533,756.8,533,756.5z"/>
					<path class="st2" d="M511.4,765.7l0.2,0.2l0.1,0.1l0.2,0.1h0.1c0.1,0,0.3,0,0.4,0l0.1-0.1l0.2-0.2l0.1-0.1l0.1-0.2v-0.1
						c0-0.1,0-0.2,0-0.4l-0.1-0.1l-0.2-0.2l-0.1-0.1l-0.2-0.1h-0.1c-0.1,0-0.2,0-0.4,0l-0.1,0.1l-0.2,0.2l-0.1,0.1l-0.1,0.2v0.1
						c0,0.1,0,0.2,0,0.4L511.4,765.7z"/>
					<path class="st2" d="M517.5,757.7l0.1-0.1l0.2-0.2l0.1-0.1v-0.1c0.1-0.2,0.1-0.5,0-0.7l-0.1-0.1l-0.1-0.1l-0.1-0.1h-0.1h-0.1
						h-0.2c-0.2,0-0.4,0.1-0.6,0.2v0.1l-0.1,0.1v0.1v0.1v0.1v0.2v0.1c0,0.1,0.1,0.2,0.1,0.3C516.8,757.7,517.2,757.8,517.5,757.7z"
						/>
					<path class="st2" d="M524.1,763.3v0.1v0.1v0.1v0.3v0.1v0.1v0.1c0.2,0.4,0.7,0.5,1,0.3c0.4-0.2,0.5-0.6,0.4-0.9l0-0.1l-0.1-0.1
						l-0.1-0.1l-0.1-0.1C524.8,762.8,524.4,762.9,524.1,763.3L524.1,763.3z"/>
					<path class="st2" d="M487.2,763.6c0,0-0.1-0.1-0.1-0.1l-0.1-0.1l-0.1-0.1h-0.1h-0.1h-0.3h-0.1c-0.2,0.1-0.4,0.3-0.5,0.5
						c-0.1,0.2-0.1,0.5,0.1,0.7l0.1,0.1l0.1,0.1l0.2,0.1h0.1h0.1h0.3h0.1c0.2-0.1,0.4-0.3,0.5-0.5
						C487.3,764.1,487.3,763.9,487.2,763.6z"/>
					<path class="st2" d="M503.7,760.1l0.1-0.2v-0.2v-0.1l0,0c0-0.2,0-0.3-0.1-0.4c-0.2-0.3-0.6-0.4-0.9-0.3l-0.1,0.1l-0.1,0.1
						c-0.3,0.2-0.4,0.5-0.2,0.8l0.1,0.1l0.2,0.2l0.1,0.1l0.2,0.1h0.1c0.1,0,0.3,0,0.5,0l0.2-0.1L503.7,760.1z"/>
					<path class="st2" d="M502.2,762.5c-0.2,0.1-0.4,0.3-0.5,0.5v0.2v0.1v0.1v0.1v0.1v0.1l0.1,0.1l0,0.1c0.2,0.2,0.6,0.3,0.8,0.2
						c0.2-0.1,0.4-0.3,0.5-0.5c0.1-0.2,0.1-0.4,0-0.5l0,0v-0.1l-0.1-0.1l-0.2-0.2l-0.1-0.1C502.7,762.4,502.4,762.4,502.2,762.5z"/>
				</g>
			</g>
		</g>
	</g>
</g>
</svg>
