<svg xmlns="http://www.w3.org/2000/svg" viewBox="0 0 1366 768"><defs><style>.cls-1,.cls-2,.cls-4,.cls-5{fill:none;}.cls-1,.cls-4{stroke:#3d7cf7;stroke-width:5.67px;}.cls-1,.cls-2,.cls-5{stroke-miterlimit:10;}.cls-2{stroke:#1e2e34;}.cls-3{fill:#3d7cf7;}.cls-4{stroke-linecap:round;stroke-linejoin:round;}.cls-5{stroke:#000;}</style></defs><g id="Function-3"><rect class="cls-1" x="95.38" y="80.22" width="31.65" height="31.65" rx="7.47"/><rect class="cls-2" x="118.2" y="93.58" width="31.65" height="31.65" rx="5.69"/><path class="cls-3" d="M391.05,644.5a15.92,15.92,0,1,1-15.91-15.91A15.91,15.91,0,0,1,391.05,644.5Z"/><path class="cls-2" d="M413.87,657.86A15.92,15.92,0,1,1,398,642,15.91,15.91,0,0,1,413.87,657.86Z"/><polygon class="cls-4" points="99.88 570.31 89.38 552.15 78.91 570.32 68.43 588.49 89.41 588.48 110.38 588.47 99.88 570.31"/><polygon class="cls-2" points="122.7 583.67 112.2 565.5 101.73 583.68 91.25 601.85 112.22 601.84 133.2 601.83 122.7 583.67"/><line class="cls-4" x1="378.91" y1="162.32" x2="414.78" y2="162.32"/><line class="cls-5" x1="401.72" y1="175.68" x2="437.59" y2="175.68"/><path class="cls-4" d="M783.47,704.3a15.92,15.92,0,0,1,31.83-.13"/><path class="cls-5" d="M806.34,717.57a15.92,15.92,0,0,1,31.83-.13"/><path class="cls-4" d="M1186.09,673.11c-6.91,0-5.72-12.26-14.54-12.26"/><path class="cls-4" d="M1215.16,673.11c-6.91,0-5.72-12.25-14.53-12.25"/><path class="cls-4" d="M1186.09,673.11c6.91,0,5.72-12.25,14.54-12.25"/><path class="cls-4" d="M1215.16,673.11c6.91,0,5.72-12.26,14.54-12.25"/><path class="cls-5" d="M1208.91,686.47c-6.91,0-5.72-12.26-14.54-12.26"/><path class="cls-5" d="M1238,686.47c-6.91,0-5.72-12.25-14.54-12.25"/><path class="cls-5" d="M1208.91,686.47c6.91,0,5.72-12.25,14.53-12.25"/><path class="cls-5" d="M1238,686.47c6.91,0,5.72-12.26,14.54-12.25"/><line class="cls-5" x1="690.48" y1="58.99" x2="675.23" y2="44.69"/><line class="cls-5" x1="675.7" y1="59.47" x2="690.01" y2="44.22"/><line class="cls-5" x1="57.48" y1="215.99" x2="42.23" y2="201.69"/><line class="cls-5" x1="42.7" y1="216.47" x2="57.01" y2="201.22"/><path class="cls-5" d="M372.69,485.14a6.26,6.26,0,1,1,2-8.63A6.26,6.26,0,0,1,372.69,485.14Z"/><path class="cls-3" d="M1040.12,79a6.27,6.27,0,1,1,2-8.64A6.27,6.27,0,0,1,1040.12,79Z"/><line class="cls-4" x1="204.1" y1="730.56" x2="188.85" y2="716.26"/><line class="cls-4" x1="189.32" y1="731.04" x2="203.63" y2="715.79"/><path class="cls-5" d="M1313.34,51.3a6.26,6.26,0,1,1,2-8.64A6.25,6.25,0,0,1,1313.34,51.3Z"/></g></svg>