<svg id="レイヤー_1" data-name="レイヤー 1" xmlns="http://www.w3.org/2000/svg" xmlns:xlink="http://www.w3.org/1999/xlink" viewBox="0 0 1663.2 660"><defs><style>.cls-1{fill:url(#linear-gradient);}.cls-2{fill:url(#linear-gradient-2);}.cls-3{fill:url(#linear-gradient-3);}.cls-4{fill:url(#linear-gradient-4);}.cls-5{fill:url(#linear-gradient-5);}</style><linearGradient id="linear-gradient" x1="14.35" y1="-188.1" x2="381.65" y2="-188.1" gradientTransform="translate(0 523.95)" gradientUnits="userSpaceOnUse"><stop offset="0" stop-color="#0086ff"/><stop offset="1" stop-color="#1170d1"/></linearGradient><linearGradient id="linear-gradient-2" x1="450.05" y1="-188.05" x2="726.85" y2="-188.05" xlink:href="#linear-gradient"/><linearGradient id="linear-gradient-3" x1="782.95" y1="-188.05" x2="897.55" y2="-188.05" xlink:href="#linear-gradient"/><linearGradient id="linear-gradient-4" x1="978.35" y1="-188" x2="1291.65" y2="-188" xlink:href="#linear-gradient"/><linearGradient id="linear-gradient-5" x1="1339.15" y1="-188.05" x2="1637.45" y2="-188.05" xlink:href="#linear-gradient"/></defs><path class="cls-1" d="M14.35,335.2c0-136.8,92.5-222.8,237.7-222.8,44.9,0,85.3,9.8,125.1,28.7V249.9c-39.1-23.5-78.2-34.5-121.2-34.5-74.2,0-122.4,46.3-122.4,119.8,0,74.2,48.2,121.2,122.4,121.2,45.6,0,85.3-12.4,125.7-36.5V527.4c-41,22.2-82.7,31.9-129.6,31.9C106.85,559.3,14.35,472,14.35,335.2Z"/><path class="cls-2" d="M450.05,121.6h114.6V446h162.2V550.2H450.05V121.6Z"/><path class="cls-3" d="M783,121.6h114.6V550.2H783Z"/><path class="cls-4" d="M978.35,121.6H1123c103.6,0,168.7,63.2,168.7,151.8,0,89.9-65.8,153.1-169.4,153.1H1093V550.3H978.35ZM1117.05,330c35.8,0,58.6-22.2,58.6-56.7,0-32.6-22.8-53.4-59.3-53.4H1093V330Z"/><path class="cls-5" d="M1345.05,531.3V425.1a254.5,254.5,0,0,0,125.1,33.2c28.7,0,46.2-11.7,46.2-32.6,0-18.9-15.6-32.6-48.9-42.3l-17.6-4.6c-74.2-20.2-110.7-66.4-110.7-130.9,0-81.4,60.6-134.8,156.3-134.8,40.4,0,83.4,7.2,123.1,23.5V242.1c-35.8-19.5-75.6-30-113.3-30-28,0-44.3,9.1-44.3,29.3,0,17.6,15,30,45.6,39.1l17.6,4.6c76.9,20.8,113.3,67.7,113.3,130.3,0,90.5-61.9,143.3-160.9,143.3C1433.55,558.6,1388.05,549.5,1345.05,531.3Z"/></svg>